<?xml version="1.0" encoding="utf-8"?>
<!-- Generator: Adobe Illustrator 21.0.0, SVG Export Plug-In . SVG Version: 6.00 Build 0)  -->
<svg version="1.1" id="Layer_1" xmlns="http://www.w3.org/2000/svg" xmlns:xlink="http://www.w3.org/1999/xlink" x="0px" y="0px"
	 viewBox="0 0 20 20" style="enable-background:new 0 0 20 20;" xml:space="preserve">
<style type="text/css">
	.st0{display:none;}
	.st1{display:inline;fill:none;stroke:#D2D8D8;stroke-linecap:round;stroke-linejoin:round;stroke-miterlimit:10;}
	.st2{fill:#D1D7D7;}
</style>
<g transform="translate(2, 2)" class="st0">
	<g>
		<polyline class="st1" points="0.5,5 8,9 15.5,5 		"/>
		<path class="st1" d="M14.5,14.5h-13c-0.6,0-1-0.4-1-1v-11c0-0.6,0.4-1,1-1h13c0.6,0,1,0.4,1,1v11C15.5,14.1,15.1,14.5,14.5,14.5z"
			/>
	</g>
</g>
<g>
	<path class="st2" d="M14.6,0.2H5.8C5,0.2,4.4,0.8,4.4,1.5v17.2C4.4,19.4,5,20,5.8,20h8.8c0.7,0,1.3-0.6,1.3-1.3V1.5
		C15.9,0.8,15.3,0.2,14.6,0.2z M8.8,1.1h2.8c0.1,0,0.2,0.1,0.2,0.2c0,0.1-0.1,0.2-0.2,0.2H8.8c-0.1,0-0.2-0.1-0.2-0.2
		C8.6,1.2,8.7,1.1,8.8,1.1z M10.2,19.3c-0.4,0-0.7-0.3-0.7-0.7S9.8,18,10.2,18s0.7,0.3,0.7,0.7S10.6,19.3,10.2,19.3z M15,17.5H5.4
		V2.3H15V17.5z"/>
</g>
</svg>
