<?xml version="1.0" encoding="iso-8859-1"?>
<!-- Generator: Adobe Illustrator 19.0.0, SVG Export Plug-In . SVG Version: 6.00 Build 0)  -->
<svg xmlns="http://www.w3.org/2000/svg" xmlns:xlink="http://www.w3.org/1999/xlink" version="1.1" id="Layer_1" x="0px" y="0px" viewBox="0 0 512 512" style="enable-background:new 0 0 512 512;" xml:space="preserve" width="512px" height="512px">
<g>
	<g>
		<path d="M476.561,369.016c-32.102-54.613-83.302-95.095-144.179-113.971c-5.99-1.877-12.544-0.273-17.016,4.13    c-20.958,20.617-46.114,37.666-59.136,45.892c-14.097-9.301-41.984-28.501-59.597-45.875c-4.489-4.437-11.025-6.042-17.05-4.147    c-60.928,18.91-112.128,59.392-144.145,113.971c-3.14,5.342-3.14,11.93,0,17.271c45.483,77.5,129.98,125.628,220.535,125.628    s175.087-48.128,220.587-125.611C479.701,380.962,479.701,374.357,476.561,369.016z M255.974,477.781    c-75.076,0-145.323-38.11-185.754-100.13c26.129-40.158,64.7-70.588,110.165-86.904c27.085,24.252,64.768,47.872,66.526,48.964    c5.325,3.328,12.066,3.482,17.527,0.324c1.57-0.904,36.113-20.838,67.191-49.271c45.397,16.299,83.951,46.729,110.131,86.886    C401.314,439.672,331.068,477.781,255.974,477.781z" fill="#FFFFFF"/>
	</g>
</g>
<g>
	<g>
		<path d="M198.63,261.564c-5.393-7.714-16.026-9.609-23.774-4.233c-34.116,23.791-63.915,67.789-86.153,127.215    c-4.779,12.8-9.267,26.487-13.312,40.67c-2.577,9.062,2.68,18.517,11.725,21.094c1.57,0.444,3.14,0.648,4.693,0.648    c7.441,0,14.268-4.881,16.418-12.373c3.789-13.312,7.97-26.129,12.442-38.059c19.814-52.924,45.295-91.375,73.728-111.189    C202.129,279.927,204.023,269.295,198.63,261.564z" fill="#FFFFFF"/>
	</g>
</g>
<g>
	<g>
		<path d="M437.137,425.233c-3.925-13.909-8.397-27.597-13.295-40.721c-22.204-59.375-51.985-103.373-86.153-127.215    c-7.731-5.393-18.398-3.482-23.774,4.233c-5.376,7.748-3.499,18.381,4.232,23.774c28.041,19.575,54.221,59.051,73.711,111.172    c4.574,12.237,8.738,25.037,12.407,38.042c2.133,7.526,8.977,12.442,16.418,12.442c1.536,0,3.106-0.188,4.659-0.666    C434.406,443.733,439.68,434.295,437.137,425.233z" fill="#FFFFFF"/>
	</g>
</g>
<g>
	<g>
		<path d="M255.957,0C193.835,0,143.3,50.944,143.3,113.562v30.72c0,62.618,50.534,113.562,112.657,113.562    s112.674-50.944,112.674-113.562v-30.72C368.631,50.944,318.08,0,255.957,0z M334.498,144.282    c0,43.793-35.226,79.428-78.541,79.428c-43.298,0-78.524-35.635-78.524-79.428v-30.72c0-43.793,35.226-79.428,78.524-79.428    c43.315,0,78.541,35.635,78.541,79.428V144.282z" fill="#FFFFFF"/>
	</g>
</g>
<g>
	<g>
		<path d="M255.957,302.609c-9.421,0-17.067,7.629-17.067,17.067v175.258c0,9.438,7.646,17.067,17.067,17.067    c9.421,0,17.067-7.629,17.067-17.067V319.676C273.024,310.238,265.378,302.609,255.957,302.609z" fill="#FFFFFF"/>
	</g>
</g>
<g>
	<g>
		<path d="M367.488,382.276h-63.71c-9.438,0-17.067,7.629-17.067,17.067s7.629,17.067,17.067,17.067h63.71    c9.421,0,17.067-7.629,17.067-17.067S376.926,382.276,367.488,382.276z" fill="#FFFFFF"/>
	</g>
</g>
<g>
	<g>
		<path d="M335.625,350.43c-9.438,0-17.067,7.629-17.067,17.067v63.71c0,9.438,7.629,17.067,17.067,17.067    c9.421,0,17.067-7.646,17.067-17.067v-63.71C352.691,358.059,345.062,350.43,335.625,350.43z" fill="#FFFFFF"/>
	</g>
</g>
<g>
</g>
<g>
</g>
<g>
</g>
<g>
</g>
<g>
</g>
<g>
</g>
<g>
</g>
<g>
</g>
<g>
</g>
<g>
</g>
<g>
</g>
<g>
</g>
<g>
</g>
<g>
</g>
<g>
</g>
</svg>
