<?xml version="1.0" encoding="UTF-8"?>
<svg version="1.1" viewBox="0 0 1600 1208" width="1280" height="1280" xmlns="http://www.w3.org/2000/svg">
<path transform="translate(166 121)" d="m0 0c0.65-0 1.3-0.01 1.96-0.01 2.18-0.01 4.35 0.01 6.52 0.03 1.56 0 3.12 0 4.68-0.01 4.25 0 8.5 0.02 12.8 0.04 4.5 0.02 8.99 0.02 13.5 0.02 7.6 0.01 15.2 0.03 22.8 0.06 10.5 0.04 21.1 0.06 31.6 0.07 36.1 0.04 72.2 0.17 108 1.17 6.92 0.19 13.8 0.32 20.8 0.45 3.11 0.06 6.21 0.13 9.32 0.19 0.99 0.02 1.97 0.04 2.98 0.06 2.94 0.5 3.66 1.07 5.44 3.42 0.39 2.38 0.39 2.38 0.41 5.25 0.01 1.09 0.03 2.18 0.04 3.31v3.65c0.01 1.27 0.03 2.54 0.04 3.85 0.03 3.53 0.04 7.06 0.05 10.6 0.02 3.77 0.05 7.54 0.07 11.3 0.05 7.32 0.09 14.6 0.11 22 0.03 5.93 0.05 11.8 0.09 17.8 0.24 45.1 0.24 90.2-0.18 135-0.02 1.73-0.02 1.73-0.03 3.51-0.23 24-0.58 48-1.27 71.9-0.33 11.8-0.45 23.6-0.39 35.5 0.01 1.8 0.01 3.61 0.01 5.41 0.01 4.24 0.03 8.48 0.05 12.7 3.98 0.03 7.96 0.04 11.9 0.06 1.14 0.01 2.27 0.02 3.44 0.03 1.08 0 2.16 0 3.28 0.01 1 0 2 0.01 3.03 0.01 2.28 0.15 2.28 0.15 3.31-1.11 1.53-0.1 3.06-0.13 4.59-0.13h3.03c1.11 0 2.22 0 3.36 0.01 1.17 0 2.34 0 3.54-0.01 3.26 0 6.52 0.01 9.78 0.01 3.51 0.01 7.02 0 10.5 0 6.09 0 12.2 0.01 18.3 0.01 8.79 0.01 17.6 0.01 26.4 0.01 14.3 0.01 28.5 0.01 42.8 0.02 13.9 0.01 27.7 0.02 41.6 0.02h2.58c4.29 0 8.57 0.01 12.9 0.01 35.6 0.01 71.1 0.03 107 0.05 1.11-1.89 1.11-1.89 2-4l-1-2c-0.09-1.83-0.13-3.67-0.12-5.5 0-0.98-0.01-1.96-0.01-2.97 0.13-2.53 0.13-2.53 1.13-4.53-0.14-0.69-0.28-1.37-0.43-2.07-0.77-3.95-0.7-7.78-0.69-11.8-0.01-0.9-0.01-1.79-0.01-2.71v-8.98-6.43c-0.01-5.83 0-11.7 0-17.5v-18.3-30.7c0.01-11.8 0.01-23.7 0-35.5v-30.5-18.2c-0.01-5.71 0-11.4 0-17.1v-6.28c0-2.86 0-5.73 0.01-8.59-0.01-0.83-0.01-1.65-0.01-2.5 0.02-5 0.46-9.79 1.13-14.7 0.08-2.47 0.11-4.95 0.1-7.42v-2.1c-0.01-1.49-0.01-2.99-0.02-4.48-0.01-2.39-0.02-4.77-0.03-7.15-0.01-5.93-0.03-11.8-0.06-17.8-0.02-5-0.03-10-0.04-15-0.01-2.32-0.02-4.63-0.03-6.95-0.03-7.7 0.1-15.4 0.46-23.1 0.05-1.16 0.05-1.16 0.09-2.35 0.3-5.44 0.3-5.44 2.53-7.67 2.98-0.28 2.98-0.28 6.87-0.32 0.71-0.01 1.42-0.02 2.15-0.03 2.39-0.03 4.77-0.05 7.16-0.07 1.68-0.02 3.37-0.03 5.06-0.06 4.55-0.05 9.11-0.09 13.7-0.12 3.82-0.04 7.63-0.07 11.4-0.11 12.2-0.12 24.4-0.21 36.6-0.29 1.16-0.01 1.16-0.01 2.33-0.02 33.5-0.21 67.1 0.04 101 0.42 2.71 0.03 5.43 0.06 8.14 0.09 4.29 0.05 8.59 0.1 12.9 0.16 1.57 0.02 3.15 0.04 4.72 0.06 5.11 0.05 10.2 0.15 15.3 0.29 1.27 0.03 1.27 0.03 2.56 0.06 2.62 0.07 5.24 0.17 7.86 0.27 1.22 0.03 1.22 0.03 2.46 0.06 5.64 0.26 5.64 0.26 7.84 1.85 1.66 2.27 1.66 3.59 1.66 6.38 0.01 1.44 0.01 1.44 0.02 2.9-0.01 1.05-0.02 2.11-0.03 3.19 0 1.12 0.01 2.23 0.01 3.38 0.01 3.77-0.01 7.53-0.02 11.3 0 2.69 0 5.38 0.01 8.07 0 6.57-0.01 13.1-0.02 19.7-0.02 7.67-0.02 15.4-0.02 23-0.01 13.7-0.02 27.4-0.05 41.2-0.02 13.3-0.03 26.5-0.04 39.8v2.47 4.91 2.45 2.44c0 12.7-0.01 25.4-0.03 38.1 0 4.57-0.01 9.14-0.01 13.7 0 7.28-0.01 14.6-0.02 21.8-0.01 3.31-0.02 6.63-0.02 9.94 0 13-0.16 26.1-0.66 39.1-0.71 19-0.64 38-0.63 57v16.3c-0.01 10.6 0 21.2 0 31.8v25.9 3.75 7.54 68.5c0.01 20.7 0.01 41.5 0 62.2v70.2 7.53 3.74 25.8c-0.01 10.5-0.01 21 0 31.6v16c-0.01 26.6 0.33 53.2 0.97 79.8 0.26 11.1 0.29 22.3 0.26 33.4v6.39l-0.03 16.2c-0.01 5.6-0.01 11.2-0.02 16.8-0.01 10.8-0.03 21.7-0.05 32.5-5.41 2.2-10.4 2.43-16.2 2.6-1.04 0.04-2.08 0.08-3.15 0.12-14.5 0.47-29 0.51-43.5 0.58-4.21 0.02-8.43 0.05-12.6 0.08-7.09 0.04-14.2 0.08-21.3 0.12-7.18 0.04-14.4 0.08-21.5 0.13-0.88 0-1.76 0.01-2.67 0.01-1.77 0.01-3.53 0.02-5.3 0.03-16.1 0.1-32.2 0.19-48.3 0.26-8.31 0.04-16.6 0.09-24.9 0.14-4.37 0.03-8.75 0.05-13.1 0.07-1.91 0.01-3.81 0.02-5.72 0.03-24 0.2-24 0.2-32.7-2.17-2.75-3.61-2.27-7.93-2.24-12.3-0.01-0.84-0.01-1.68-0.01-2.55-0.01-2.83 0-5.66 0.01-8.49 0-2.03 0-4.06-0.01-6.09 0-5.54 0.01-11.1 0.02-16.6 0.01-5.88 0-11.8 0-17.6 0.01-9.95 0.01-19.9 0.03-29.9 0.01-10.1 0.02-20.1 0.02-30.2 0-47.6 0.02-95.2 0.6-143 0.03-2.53 0.06-5.05 0.09-7.58 0.05-3.88 0.1-7.75 0.15-11.6 0.03-2.04 0.06-4.08 0.08-6.12 0.08-5.14 0.2-10.2 0.81-15.3 0.41-3.46 0.23-6.24-0.3-9.66-0.52-4.62-0.24-9.28-0.13-13.9 0.03-1.1 0.05-2.2 0.08-3.33 0.07-3.48 0.16-6.97 0.24-10.4 0.05-2.37 0.11-4.75 0.16-7.12 0.13-5.79 0.26-11.6 0.4-17.4-0.77 0.16-1.55 0.31-2.35 0.48-11.1 2.18-22.6 1.67-33.9 1.65-2.92-0.01-5.85 0-8.77 0-10.4 0.01-20.7-0.11-31-0.37-27.1-0.67-54.1-0.86-81.2-0.69-5.37 0.03-10.7 0.05-16.1 0.08-8.94 0.04-17.9 0.09-26.8 0.14-10.3 0.07-20.7 0.12-31 0.17-10 0.04-20 0.1-30.1 0.15-4.24 0.03-8.48 0.05-12.7 0.07-4.95 0.02-9.9 0.05-14.9 0.08-1.81 0.01-3.63 0.02-5.45 0.03-2.46 0.01-4.93 0.02-7.4 0.04-1.09 0.01-1.09 0.01-2.2 0.01-3.71-0.02-3.71-0.02-7.17 1.16-1.08 3.25-1.12 5.59-1.12 9 0 1.27 0 2.53-0.01 3.83 0.01 1.41 0.01 2.82 0.01 4.23v4.48c0 4.11 0 8.22 0.01 12.3v13.3c0 7.67 0 15.4 0.01 23 0.01 11.1 0.01 22.2 0.01 33.3 0 18 0.01 36 0.02 54 0.01 17.5 0.01 35 0.02 52.5v3.26 16.2c0.01 44.9 0.03 89.7 0.05 135-10.2 2.71-21.4 2.17-32 2.3l-4.02 0.06c-3.63 0.06-7.26 0.11-10.9 0.15-2.31 0.03-4.62 0.06-6.94 0.09-34.3 0.46-68.7 0.65-103 0.69-9.87 0.01-19.7 0.03-29.6 0.08-7.11 0.03-14.2 0.04-21.3 0.04-4.19 0.01-8.38 0.02-12.6 0.04-3.87 0.02-7.75 0.03-11.6 0.02-1.41 0-2.83 0-4.24 0.02-1.93 0.02-3.86 0.01-5.79 0h-3.26c-3.55-0.63-4.68-1.58-6.78-4.49-0.9-4.16-1.12-8.13-1.12-12.4-0.01-1.9-0.01-1.9-0.01-3.85 0-1.41 0-2.81 0.01-4.22 0-1.5-0.01-3.01-0.01-4.51v-12.4c0.01-4.5 0-9.01 0-13.5v-23.7-35.3c-0.01-21-0.01-42 0-63v-55.1-3.69-14.8-139c0.01-41.2 0.01-82.5 0-124v-139-14.8-3.68-55.1c-0.01-20.9-0.01-41.8 0-62.7v-35.1-23.4c0.01-4.45 0.01-8.9 0-13.4-0.02-30.3-0.02-30.3 0.39-41.3 0.05-1.3 0.09-2.6 0.14-3.94 1.27-6.5 4.96-7.58 11.1-7.57z" fill="#FE0D08"/>
<path transform="translate(1225 125)" d="m0 0c2.44 0 4.89-0.02 7.33-0.05 10.4-0.04 20 1.06 30.2 3.37 0.84 0.17 1.68 0.35 2.54 0.54 11 2.4 21.8 5.62 31.5 11.5 1.66 0.68 3.33 1.34 5 2 2.05 1 4.09 2.02 6.13 3.06 2.96 1.51 5.72 2.88 8.87 3.94v2c0.72 0.09 1.44 0.19 2.17 0.3 3.22 0.79 5.32 2.05 8.08 3.88 0.97 0.64 1.94 1.28 2.94 1.94 0.93 0.62 1.86 1.24 2.81 1.88 1.07 0.66 1.07 0.66 2.15 1.34 23.8 15 43 35.7 57.8 59.4 1.66 2.63 3.38 5.21 5.15 7.77 5.15 7.68 9.27 15.9 12.9 24.4 0.55 1.16 1.09 2.32 1.65 3.51 7.11 15.2 10.8 30.8 12.4 47.5 0.13 1.11 0.13 1.11 0.25 2.25 0.78 7.31 0.85 14.6 0.8 21.9-0.03 3.86-0.04 7.71-0.05 11.6v2.49c-0.02 10.1 0.12 20.1 0.26 30.2 0.02 1.94 0.05 3.89 0.07 5.84 0.1 7.94 0.21 15.9 0.32 23.8 0.55 38.9 0.55 38.9-0.23 55.1-0.81 17.1-0.81 34.2-0.98 51.4-0.02 2.05-0.04 4.1-0.06 6.16-0.38 37.7-0.49 75.4-0.5 113 0 4.36 0 8.72-0.01 13.1-0.03 31.1 0.08 62.2 0.55 93.3 0.03 2.06 0.06 4.11 0.09 6.17 0.23 15.6 0.59 31.1 1.17 46.7 0.35 9.54 0.34 19 0.01 28.6l-0.15 4.65c-0.32 10-0.82 20-1.48 30-0.07 1.16-0.14 2.32-0.22 3.51-0.48 6.58-1.42 12.9-2.84 19.3-0.36 1.83-0.72 3.67-1.08 5.51-2.26 11.2-4.96 21.1-9.92 31.5-0.66 1.66-1.31 3.32-1.94 5-3.42 8.66-7.5 17.5-13.1 25h-2c-0.24 0.86-0.47 1.72-0.72 2.61-1.43 3.78-3.29 6.39-5.78 9.57-3.35 4.33-3.35 4.33-6.5 8.82h-2c-0.22 0.55-0.45 1.1-0.68 1.66-1.73 3.06-3.94 5.18-6.44 7.65-0.5 0.49-0.99 0.97-1.5 1.47-3.35 3.28-6.79 6.44-10.4 9.47-1.48 1.28-2.92 2.59-4.35 3.93-4.98 4.65-10 8.53-15.8 12.1-2.91 1.8-5.7 3.73-8.52 5.68-10.1 6.74-21 11.8-32.4 16-2.59 0.96-5.09 2.03-7.62 3.15-8.55 3.46-18.1 5.19-27.2 6.49-3.16 0.35-3.16 0.35-6.14 1.45-18.2 2.37-36.9 3-55 0-1.43-0.19-1.43-0.19-2.88-0.38-7.04-0.97-13.9-2.74-20.7-4.5-0.97-0.24-1.94-0.49-2.93-0.74-6.38-1.67-12.4-3.81-18.4-6.38-1.29-0.53-2.58-1.05-3.88-1.57-14-5.91-26.9-13.4-39.1-22.4-1-0.71-2.01-1.41-3.04-2.14-1.02-0.72-2.04-1.44-3.08-2.18-0.93-0.65-1.86-1.31-2.82-1.99-0.68-0.56-1.36-1.12-2.06-1.69v-2c-0.58-0.27-1.16-0.54-1.77-0.81-14-7.52-28.5-24.4-36.2-38.2v-2c-0.92-0.38-0.92-0.38-1.86-0.77-2.51-1.45-3.11-2.48-4.39-5.05-2.09-4.02-4.39-7.85-6.81-11.7-5.35-8.68-8.67-17.4-11.8-27-0.69-2.07-1.42-4.13-2.23-6.16-0.84-2.1-1.39-4.09-1.92-6.29-0.3-1.23-0.59-2.46-0.9-3.73-2.76-11.5-5.15-22.7-5.85-34.5-0.15-2.84-0.15-2.84-1.25-5.75-0.09-2.7-0.13-5.38-0.13-8.08v-2.53c-0.01-2.83 0-5.66 0-8.49 0-2.03-0.01-4.07-0.01-6.11v-16.9c0-6.05-0.01-12.1-0.01-18.2-0.01-11.9-0.01-23.7-0.02-35.6v-28.9-8.32-2.09c-0.01-19.4-0.01-38.8-0.01-58.2v-2.22-11.1-2.24-4.47c0-23.2-0.01-46.4-0.02-69.5-0.02-26-0.03-52.1-0.03-78.1v-8.33-2.07c0-11 0-22-0.01-33-0.01-11.1-0.01-22.1 0-33.2 0-5.99 0-12-0.01-18-0.01-5.49-0.01-11 0-16.5v-5.95c-0.01-2.7-0.01-5.4 0-8.09 0-0.77-0.01-1.54-0.01-2.34 0.03-4.68 0.66-8.9 1.82-13.4 0.74-3.41 0.61-6.75 0.5-10.2l-0.09-4.62c-0.01-0.79-0.03-1.58-0.05-2.39-0.37-19.6 0.79-38.4 8.08-56.8 0.42-1.13 0.83-2.27 1.26-3.43 1.92-5.17 3.89-9.85 6.74-14.6 0.31-0.78 0.62-1.56 0.94-2.36 4.96-12.3 12.9-24.3 21.1-34.6 0.59-0.79 1.19-1.57 1.8-2.38 3.33-4.36 6.8-8.56 10.5-12.7 1.17-1.31 2.32-2.65 3.46-4 3.46-4.08 7.08-7.65 11.2-11.1 2.35-2.08 4.49-4.29 6.66-6.55 3.6-3.66 6.93-5.93 11.4-8.31 0.62-0.63 1.24-1.25 1.87-1.89 2.3-2.28 4.63-3.85 7.38-5.55 0.98-0.61 1.96-1.22 2.97-1.85 0.92-0.56 1.84-1.13 2.78-1.71 0.64-0.43 1.28-0.85 1.94-1.29 6.36-4.19 13.3-7.39 20.1-10.7 1.76-0.87 3.5-1.78 5.24-2.68 10.6-5.48 21-8.55 32.7-10.7 2.95-0.46 2.95-0.46 5.05-1.61 10.5-1.96 20.9-2.35 31.5-2.32zm-11.5 63.3c-2.98 3.76-6 8.05-6 13 1.79 4.17 3.98 5.99 8 8 3.09 1.02 5.32 1.15 8.56 1.21 1.66 0.04 1.66 0.04 3.36 0.08 2.31 0.05 4.62 0.1 6.93 0.14 7.76 0.21 14.7 1.36 22.2 3.57 1.21 0.35 2.43 0.7 3.67 1.07 9.45 3.23 17.9 7.69 26.3 12.9 0.95 0.58 1.89 1.16 2.86 1.76 24.6 16.6 42.5 42.9 48.5 72 1.46 8.73 1.02 17.7 0.97 26.5v6.66c0 5.98-0.01 12-0.03 18-0.02 6.27-0.02 12.5-0.03 18.8-0.01 10.5-0.02 21-0.05 31.5-0.03 10.8-0.05 21.6-0.06 32.4 0 1.01 0 1.01-0.01 2.03 0 3.35 0 6.71-0.01 10.1-0.03 27.8-0.08 55.5-0.15 83.3 3.23 1.34 5.74 2.25 9.25 2.26 1.16 0.01 1.16 0.01 2.35 0.01 0.79-0.01 1.58-0.02 2.4-0.02 0.8 0 1.59 0.01 2.41 0.02 0.77 0 1.55-0.01 2.34-0.01 0.7 0 1.39 0 2.11-0.01 2.61-0.31 4.73-1.25 7.14-2.25 0.01-0.73 0.02-1.45 0.03-2.19 0.1-6.8 0.2-13.6 0.31-20.4 0.06-3.49 0.11-6.99 0.16-10.5 0.06-4.02 0.12-8.04 0.19-12 0.01-1.26 0.03-2.52 0.05-3.81 0.02-1.17 0.04-2.33 0.06-3.52 0.01-1.03 0.03-2.05 0.04-3.11 0.16-2.44 0.16-2.44 1.16-4.44 0.1-1.34 0.13-2.68 0.13-4.01 0-0.84 0-1.68 0.01-2.55 0-0.92-0.01-1.84-0.01-2.79 0-0.97 0-1.95 0.01-2.95 0-3.23 0-6.46-0.01-9.69 0.01-2.26 0.01-4.51 0.01-6.77 0-4.75 0-9.5-0.01-14.2 0-6.03 0-12.1 0.01-18.1v-14-6.65c0.01-11.8-0.12-23.5-0.79-35.2-0.51-9.07-0.39-18.1-0.25-27.2 0.03-2.18 0.05-4.36 0.06-6.54 0.02-1.26 0.04-2.52 0.05-3.82-0.21-3.51-1-6.18-2.21-9.46-0.21-2.04-0.35-4.08-0.44-6.13-0.43-6.58-1.77-12.5-3.56-18.9-0.43-1.69-0.43-1.69-0.87-3.41-1.95-7.35-4.5-14-7.86-20.8-1.06-2.29-1.78-4.29-2.27-6.74h-2c-0.1-0.57-0.2-1.13-0.3-1.71-0.85-2.79-2.18-4.67-3.89-7.04-0.63-0.88-1.26-1.75-1.91-2.66-0.62-0.85-1.25-1.71-1.9-2.59-0.53-0.75-1.07-1.49-1.62-2.26-2.87-3.92-5.89-7.34-9.38-10.7-1.08-1.4-1.08-1.4-2.19-2.82-11.7-14.2-30.4-22.9-46.8-30.2-0.75-0.35-1.49-0.69-2.26-1.04-5.09-2.3-10.2-4.32-15.5-6.15-0.73-0.26-1.45-0.52-2.21-0.79-7.11-2.5-13.3-3.21-20.8-3.21-0.86-0.01-1.73-0.03-2.62-0.04-9.35-0.02-16.7 1.54-23.6 8.23zm-181 108 1 2zm30 281c-5.78 7.95-3.05 25.4-3.03 34.8v4.17c0.01 4.69 0.02 9.37 0.03 14.1 0 0.83 0.01 1.66 0.01 2.52 0.06 25.7 0.17 51.3 0.28 77 0.05 11.6 0.1 23.2 0.13 34.8 0.04 10.2 0.08 20.5 0.12 30.7 0.03 5.38 0.05 10.8 0.07 16.1 0.05 19.5 0.13 39 1.27 58.4 0.07 1.31 0.15 2.62 0.22 3.96 0.63 9.52 2.26 18.4 5.28 27.4 0.6 1.83 1.13 3.68 1.66 5.54 2.04 7.13 4.71 13.7 7.96 20.4 0.58 1.25 1.17 2.5 1.75 3.75 7.45 15.8 17.9 31.9 32.2 42.2h2c0.25 0.57 0.5 1.15 0.75 1.75 1.43 2.58 3.04 4.31 5.25 6.25h2v2c1.16 0.59 1.16 0.59 2.34 1.2 1 0.53 2 1.06 3.04 1.61 0.99 0.52 1.99 1.04 3.02 1.58 2.6 1.61 2.6 1.61 4.6 4.61 2.47 1.39 4.89 2.65 7.44 3.87 1.09 0.53 1.09 0.53 2.2 1.07 2.11 1.03 4.24 2.04 6.36 3.06 0.98 0.48 1.97 0.96 2.98 1.45 6.75 3.22 13.7 5.62 20.8 7.86 2.34 0.74 4.66 1.5 6.98 2.26 9.65 3.1 18.9 5.24 29 6.1 3.21 0.33 3.21 0.33 5.21 1.33 2.21 0.09 4.42 0.13 6.63 0.13h2 4.22c2.12-0.01 4.23 0 6.35 0 10.5 0.01 20.3-0.33 30.4-3.51 1.1-0.33 1.1-0.33 2.22-0.67 5.1-1.57 10.2-3.21 15.2-4.95v-2c0.81 0.08 1.61 0.16 2.44 0.25 15.3-1.08 30.9-15.1 42.6-24.2 0.55-0.43 1.1-0.85 1.67-1.29 5.34-4.15 10.2-8.33 14.5-13.6 1.64-1.89 3.34-3.61 5.14-5.36 3.7-3.67 6.92-7.6 10.1-11.8 0.56-0.74 1.12-1.48 1.7-2.25 10.5-14 19.6-29.4 22.9-46.8 0.46-0.8 0.91-1.61 1.38-2.43 2.43-5.35 3.24-10.9 4.25-16.6 0.22-1.24 0.44-2.48 0.66-3.76 1.68-9.96 2.41-19.7 2.61-29.8 0.1-2.2 0.32-4.32 0.6-6.5 0.58-5.02 0.64-9.99 0.63-15v-2.99c0.01-3.29 0-6.58 0-9.86 0-2.37 0-4.73 0.01-7.09v-19.2c-0.01-4-0.01-7.99 0-12v-2.02-4.05c0-12.6 0-25.3-0.01-37.9v-32.6c0.01-12.6 0.01-25.2 0.01-37.8 0-6.67-0.01-13.3 0-20 0-6.26 0-12.5-0.01-18.8v-6.92c0.01-3.13 0-6.26 0-9.39 0-1.39 0-1.39 0.01-2.81 0.39-4 0.39-4-1.14-7.36-2.81-0.1-5.59-0.13-8.4-0.12h-2.7c-3.01 0-6.02 0.01-9.03 0.02h-6.45c-4.64 0.01-9.29 0.01-13.9 0.02-7.35 0.01-14.7 0.02-22 0.02-16.9 0.02-33.9 0.04-50.8 0.06-15.5 0.02-31 0.04-46.5 0.05-7.29 0-14.6 0.01-21.9 0.03-4.55 0.01-9.1 0.01-13.6 0.01-2.11 0-4.21 0.01-6.32 0.01-19.3 0.05-19.3 0.05-27.2-0.88-4.04-0.42-8.09-0.33-12.2-0.29-1.9 0.01-3.79 0.02-5.69 0.03-1.47 0.01-1.47 0.01-2.96 0.02-15.2 0.09-30.4 0.07-45.5-0.42-1.25-0.04-2.5-0.08-3.8-0.12-6.23-0.22-12.4-0.6-18.6-1.31-3.87-0.21-7.91 0.16-11.4 1.87zm-15 335 1 2z" fill="#FD0C07"/>
<path transform="translate(970,434)" d="m0 0h1v8h-1v-8z" fill="#000200"/>
</svg>
