<?xml version="1.0" encoding="UTF-8"?>
<svg version="1.1" viewBox="0 0 1600 360" width="1280" height="1280" xmlns="http://www.w3.org/2000/svg">
<path transform="translate(566 20.9)" d="m0 0c1.68-0.01 1.68-0.01 3.4-0.02h3.74c1.95-0.01 1.95-0.01 3.94-0.02 3.57-0.01 7.14-0.02 10.7-0.02 2.24 0 4.48-0.01 6.72-0.01 7.05-0.01 14.1-0.02 21.1-0.03 8.08 0 16.2-0.02 24.2-0.05 6.27-0.02 12.5-0.03 18.8-0.03 3.72 0 7.45-0.01 11.2-0.03 39.5-0.18 76.8 4.6 110 26.8 1.66 1.09 3.35 2.13 5.06 3.14 2.89 1.78 4.94 4.04 7.34 6.44 1.15 0.85 2.32 1.69 3.5 2.5 6.34 4.42 11.7 10.4 16.5 16.5v2h2c6.35 8.14 15.6 20.7 17 31h2c0.2 0.76 0.41 1.52 0.62 2.3 0.27 1 0.54 1.99 0.82 3.01 0.4 1.48 0.4 1.48 0.81 2.99 0.73 2.64 1.42 5.11 2.75 7.51 1.24 2.7 1.57 5.26 2 8.19 0.44 2.13 0.86 3.75 1.93 5.64 5.31 11.7 4.35 26.4 4.32 39v2.26c-0.07 20.9-0.07 20.9-3.25 24-0.63 2.61-1.16 5.17-1.63 7.81-0.13 0.72-0.26 1.43-0.4 2.16-0.68 3.72-1.13 7.25-0.97 11l-2 1c-0.53 1.83-0.98 3.69-1.38 5.56-1.07 4.59-2.36 8.51-4.66 12.6-1.03 1.87-1.03 1.87-1.84 4.14-1.36 3.25-3.12 6.08-5 9.06-2.12 3.39-4.24 6.77-6.12 10.3-8.6 14.2-22 27.4-36 36.3-0.55 0.35-1.09 0.7-1.65 1.07-18.1 11.6-37 19.4-58.1 23.6-1.53 0.3-1.53 0.3-3.1 0.61-19.2 3.59-38.2 3.98-57.7 3.9-3.65-0.01-7.3-0.01-11-0.01-6.87-0.01-13.8-0.03-20.6-0.05-7.84-0.02-15.7-0.03-23.5-0.04-16.1-0.02-32.2-0.05-48.3-0.1-1.05-6.85-1.14-13.6-1.12-20.5v-3.77-10.3c0.01-3.72 0.01-7.43 0.01-11.1v-19.3c0.01-9.29 0.01-18.6 0.02-27.9 0-15.1 0.01-30.2 0.01-45.2l0.03-43.9v-2.74-13.6c0.01-37.6 0.03-75.1 0.05-113 2.57-1.28 4.4-1.13 7.28-1.14zm77.7 75.1c0 0.86 0 1.72 0.01 2.61 0.02 8.11 0.03 16.2 0.04 24.3 0.01 4.17 0.01 8.34 0.03 12.5 0.01 4.02 0.01 8.03 0.01 12.1 0.01 1.53 0.01 3.07 0.02 4.61v6.43c0.01 1.23 0.01 2.45 0.01 3.71-0.12 2.74-0.12 2.74-1.12 3.74-0.09 1.96-0.12 3.93-0.11 5.9v3.82c0 1.39 0.01 2.77 0.01 4.16 0 1.41 0.01 2.82 0.01 4.23 0 3.72 0.01 7.44 0.02 11.2 0.01 3.8 0.02 7.59 0.02 11.4 0.01 7.45 0.03 14.9 0.05 22.4h2c-0.01 0.77-0.01 1.54-0.02 2.34-0.02 3.49-0.03 6.98-0.04 10.5-0.01 1.22-0.02 2.43-0.03 3.68 0 1.17 0 2.33-0.01 3.53 0 1.07-0.01 2.15-0.01 3.25-0.01 2.83-0.01 2.83 1.11 5.73 4.67 0.05 9.35 0.09 14 0.11 1.58 0.01 3.16 0.02 4.74 0.04 26.2 0.28 52.9-3.07 73.2-21.2 0.6-0.51 1.2-1.02 1.82-1.54 13.6-12.4 17.5-29 19.8-46.4 0.33-2.02 0.33-2.02 0.86-4.05 0.78-3.28 0.65-6.61 0.66-9.97 0.01-0.71 0.02-1.42 0.03-2.16 0.02-3.89-0.36-6.45-2.22-9.84-0.09-2.3-0.09-2.3 0.06-4.75 0.11-4.38-0.61-7.5-2.33-11.5-0.92-2.2-1.28-4.42-1.73-6.75-3.84-8.19-8.65-15.1-14.8-21.7-2.15-2.32-2.15-2.32-4.24-5.11-0.63-0.73-1.26-1.46-1.91-2.21h-3v-2c-9.88-8.15-23.7-13-36.5-13.2-1.08-0.02-2.15-0.05-3.26-0.07-1.15-0.02-2.3-0.04-3.48-0.06-1.19-0.02-2.37-0.05-3.6-0.07-2.5-0.05-5-0.09-7.51-0.14-3.84-0.06-7.69-0.14-11.5-0.22-2.43-0.05-4.87-0.09-7.3-0.13-1.15-0.03-2.31-0.05-3.5-0.08-1.06-0.01-2.13-0.03-3.23-0.05-0.94-0.01-1.87-0.03-2.84-0.05-2.3-0.06-2.3-0.06-4.26 1.09zm194 31 1 2zm4 15v5h1v-5h-1zm1 5v7h1v-7h-1zm1 8v11h1v-11h-1zm-85 4 1 4zm86 7v26h1v-26h-1z" fill="#000102"/>
<path transform="translate(1059 16.6)" d="m0 0c2.81 0.02 5.62 0 8.43-0.02 16.4-0.02 32.1 1.65 47.6 7.1 1.01 0.34 2.02 0.69 3.06 1.04 8.41 2.97 16 6.75 23.7 11.3 1.58 0.84 3.17 1.67 4.75 2.5 4.5 2.5 8.57 5.55 12.7 8.63 2.54 1.9 2.54 1.9 5.25 3.46 2.91 1.76 4.99 3.95 7.33 6.41 0.76 0.72 1.53 1.44 2.31 2.19 1.69 1.81 1.69 1.81 1.69 3.81 0.64 0.27 1.28 0.54 1.94 0.81 2.06 1.19 2.06 1.19 3.06 4.19 0.87 0.4 0.87 0.4 1.75 0.81 3.37 1.78 5 4.12 7.25 7.19v3c0.87 0.28 0.87 0.28 1.75 0.56 2.68 1.71 3.67 3.64 5.13 6.41 1.18 2.13 2.52 4.05 3.93 6.03 3.56 5.24 6.08 10.9 8.68 16.6 0.85 1.89 1.73 3.77 2.71 5.6 1.18 2.58 0.93 4.96 0.8 7.75h2l1 9h2c0.12 0.68 0.23 1.36 0.35 2.06 0.53 3.09 1.06 6.17 1.59 9.25 0.18 1.08 0.36 2.15 0.55 3.25 0.18 1.03 0.36 2.06 0.54 3.12 0.24 1.42 0.24 1.42 0.49 2.87 0.45 2.57 0.45 2.57 1.48 5.45l-2 2c0.27 3.08 0.74 5.48 2.13 8.25 0.29 0.58 0.57 1.16 0.87 1.75l-1 2c-0.07 1.73-0.08 3.47-0.06 5.2 0.01 1.05 0.01 2.09 0.02 3.17 0.03 2.19 0.05 4.39 0.08 6.58 0.08 10.9 0.08 10.9-1.04 16l-2 2c-0.17 2.15-0.17 2.15 0 4.5 0.13 2.41 0.13 2.41 0 4.5l-2 2c-0.72 2.07-0.72 2.07-1.26 4.48-0.34 1.37-0.34 1.37-0.69 2.76-0.24 0.97-0.49 1.95-0.74 2.95-2.48 9.58-5.73 18-10.3 26.8-0.48 0.99-0.96 1.98-1.46 3-1.68 3.29-3.54 6.42-5.48 9.56-0.67 1.1-1.33 2.19-2.02 3.32-1.87 2.86-3.88 5.47-6.04 8.12l-1 2h-2c-0.26 0.58-0.53 1.16-0.8 1.76-1.25 2.33-2.63 4.08-4.39 6.05-0.82 0.94-0.82 0.94-1.66 1.9-5.49 5.86-11 11-17.6 15.7-1.17 0.84-1.17 0.84-2.37 1.7-37.4 26.3-83.2 35.9-128 28.3-12.4-2.32-24.4-6.11-35.8-11.4-0.6-0.28-1.2-0.55-1.82-0.84-18-8.36-34.6-19.5-48.2-34.2v-2c-0.6-0.26-1.2-0.53-1.81-0.8-2.27-1.24-3.48-2.39-5.13-4.35-0.52-0.61-1.04-1.22-1.58-1.85-0.79-0.96-0.79-0.96-1.6-1.94-0.54-0.63-1.08-1.26-1.63-1.92-6.25-7.4-6.25-7.4-6.25-11.1h-2c-4.47-5.67-7.35-12.6-10.3-19.2-0.53-1.14-0.53-1.14-1.06-2.3-1.55-3.51-2.78-6.67-3.23-10.5-0.13-0.99-0.26-1.98-0.4-3.01l-2-1c-0.75-2.77-1.41-5.5-2-8.31-1.07-5.55-1.07-5.55-3.06-10.8-2.73-5.52-2.09-12.6-2.07-18.6v-2.79-5.8c0.01-2.94 0-5.87-0.01-8.8-0.01-24.6-0.01-24.6 3.14-32.9 0.84-3.32 1.64-6.65 2.41-9.99 1.11-4.6 2.65-8.69 4.59-13 0.37-1.32 0.73-2.65 1-4h2c0.11-0.7 0.21-1.4 0.32-2.12 0.77-3.27 2.02-5.89 3.56-8.88 0.51-1.01 1.02-2.02 1.55-3.06 4.13-7.72 4.13-7.72 6.57-8.94 0.28-0.73 0.56-1.46 0.84-2.21 1.41-3.39 3.35-5.68 5.72-8.48 3.03-3.45 3.03-3.45 5.44-7.31h2c0.17-0.68 0.33-1.36 0.5-2.06 1.88-3.68 4.34-5.62 7.48-8.24 2.18-1.79 2.18-1.79 4.65-4.32 4.12-4.12 8.38-7.41 13.4-10.4 1.22-0.93 2.42-1.87 3.63-2.81 12.3-9.32 27.1-15 41.6-19.9 2.01-0.7 4.02-1.42 5.96-2.28 12.8-4.68 27.5-4.5 41-4.41zm-7.19 78.4c-1.44 0.29-2.89 0.53-4.35 0.76-1.28 0.19-1.28 0.19-2.58 0.4-0.89 0.13-1.78 0.26-2.69 0.4-0.9 0.14-1.8 0.28-2.72 0.42-2.22 0.35-4.44 0.68-6.66 1.02v2c-1.39 0.03-1.39 0.03-2.81 0.06-7.79 1.1-15.1 7.22-20.2 12.9-0.73 0.77-1.47 1.53-2.22 2.32-0.81 0.87-1.63 1.73-2.47 2.62-0.76 0.81-1.53 1.63-2.32 2.46-2.14 2.8-3.07 5.22-3.99 8.6h-2c-0.12 0.91-0.25 1.82-0.37 2.75-0.72 3.71-1.62 6.11-4.13 8.94-4.63 7.14-3.78 16.6-3.69 24.8 0.01 1.24 0.02 2.48 0.03 3.76-0.12 28.6-0.12 28.6 10.2 54.7l3 2v3c9.81 14.5 28.2 23.3 44.8 26.9 14.4 2.71 28.3 2.01 42.2-2.87 1.06-0.36 2.12-0.72 3.2-1.1 16.1-6.07 29.5-18.6 37-34.1 5.55-13.4 6.92-27.2 7.37-41.6 0.07-2.15 0.14-4.3 0.22-6.45 0.05-1.37 0.09-2.74 0.14-4.11 0.04-1.24 0.08-2.48 0.12-3.75 0.18-2.88 0.18-2.88-1.04-4.95-0.14-1.11-0.29-2.23-0.44-3.37-0.49-3.21-1.12-4.84-2.56-7.63-0.12-0.89-0.24-1.78-0.37-2.69-2.31-12.1-10.9-23.1-19.6-31.3-1.33-1.39-1.33-1.39-2.69-2.81-2.02-2.42-2.02-2.42-4.31-2.19v-2c-3.87-3.08-8.01-5.53-13-6v-1c-9.81-3.44-19.4-4.18-29.7-4.19h-2.68c-4.47-0.11-4.47-0.11-8.63 1.19zm159 22 1 2zm6 20v5h1v-5h-1zm1 5v5h1v-5h-1zm-314 3 1 4zm315 2 1 4zm1 8 1 2zm-317 1 1 2zm85 4 1 3zm-1 7v22h1v-22h-1zm234 21v6h1v-6h-1zm-233 1v7h1v-7h-1zm148 1 1 2zm-233 3v6h1v-6h-1zm86 4 1 4zm1 5 1 2z" fill="#000102"/>
<path transform="translate(22,21)" d="m0 0h85c1.12 11.2 1.12 11.2 1.12 15.3v2.77c0 1.45 0 1.45-0.01 2.93v3.16c0 3.42 0 6.84-0.01 10.3 0 2.39-0.01 4.77-0.01 7.16 0 6.25-0.01 12.5-0.02 18.8-0.01 6.39-0.02 12.8-0.02 19.2-0.01 12.5-0.03 25-0.05 37.6 4.95 1.3 9.85 1.13 14.9 1.11h3.02c3.28 0 6.57 0 9.85-0.01 2.28 0 4.56-0.01 6.84-0.01 6 0 12-0.01 18-0.02 6.12-0.01 12.2-0.02 18.4-0.02 12-0.01 24-0.03 36-0.05 0-0.59 0-1.18-0.01-1.79-0.04-14.3-0.07-28.7-0.09-43-0.01-6.93-0.03-13.9-0.05-20.8-0.02-6.69-0.03-13.4-0.04-20.1 0-2.56-0.01-5.12-0.02-7.68-0.02-3.57-0.02-7.14-0.02-10.7 0-1.07-0.01-2.13-0.02-3.23 0-0.97 0.01-1.94 0.01-2.94 0-0.85 0-1.69-0.01-2.56 0.25-2.17 0.25-2.17 2.25-5.17h85v312h-86c-0.97-2.92-1.13-4.78-1.13-7.83 0-0.99 0-1.99-0.01-3.01 0.01-1.63 0.01-1.63 0.01-3.3v-3.48c-0.01-3.81-0.01-7.61 0-11.4 0-2.63 0-5.27-0.01-7.9 0-5.53 0-11.1 0.01-16.6 0.01-6.4 0-12.8 0-19.2-0.01-6.15-0.01-12.3 0-18.4 0-2.62 0-5.24-0.01-7.86 0-3.65 0.01-7.3 0.01-11 0-1.09 0-2.18-0.01-3.31 0.01-0.99 0.01-1.98 0.01-3v-2.62c0.13-2.08 0.13-2.08 1.13-4.08l-2-1h3v-2h-108c-0.66 29.1-1.11 58.1-1 87.2 0.02 6.33 0.04 12.7 0.06 19 0 2.49 0.01 4.98 0.03 7.48 0 1.49 0 2.98 0.01 4.48 0 1.3 0.01 2.61 0.01 3.95-0.11 2.9-0.11 2.9-1.11 3.9-2.65 0.1-5.27 0.13-7.92 0.11h-2.51c-2.75 0-5.51 0-8.26-0.01-1.91 0-3.81-0.01-5.71-0.01-5.03 0-10-0.01-15.1-0.02-5.12-0.01-10.2-0.02-15.4-0.02-10.1-0.01-20.1-0.03-30.2-0.05-1-3.01-1.13-5.01-1.13-8.16v-3.25-3.59-3.8c-0.01-3.49 0-6.98 0-10.5v-11.3c-0.01-7.37-0.01-14.7-0.01-22.1 0.01-5.99 0.01-12 0.01-18v-2.58c0-1.72 0-3.45-0.01-5.18 0-16.2 0.01-32.4 0.01-48.7 0.01-13.9 0-27.9 0-41.8-0.01-16.2-0.01-32.3 0-48.5v-5.17-2.57c0-5.98 0-12-0.01-18 0-7.28 0-14.6 0.01-21.9v-11.2c-0.01-4.02 0-8.05 0-12.1v-3.6-3.25-2.82c0.13-2.21 0.13-2.21 1.13-4.21z" fill="#FB0706"/>
<path transform="translate(1524 43.4)" d="m0 0c0.65 0.43 1.31 0.86 1.98 1.3 1.55 1.05 3.04 2.18 4.52 3.32v2c1.65 0.66 3.3 1.33 5 2v2c1.65 0.66 3.3 1.33 5 2v2h2v2c0.87 0.35 0.87 0.35 1.75 0.69 2.87 1.68 4.24 3.66 6.25 6.31 0.91 1.05 1.83 2.09 2.75 3.13 11.6 13.5 19.8 28.2 25.4 45 0.25 0.74 0.5 1.48 0.76 2.24 0.23 0.73 0.47 1.46 0.72 2.21 0.21 0.63 0.42 1.27 0.63 1.93 0.67 2.37 1.21 4.74 1.74 7.15 0.27 1.22 0.27 1.22 0.55 2.46 0.13 0.62 0.27 1.25 0.41 1.88-11.8 0.1-23.6 0.17-35.4 0.21-5.47 0.02-11 0.05-16.4 0.1-5.28 0.04-10.6 0.06-15.8 0.07-2.02 0.01-4.04 0.03-6.05 0.05-2.83 0.03-5.65 0.03-8.47 0.03-0.84 0.01-1.68 0.03-2.54 0.04-3.62-0.02-5.78-0.13-8.71-2.35-1.88-2.59-3.42-5.26-4.94-8.08-2.73-4.86-5.17-7.81-9.62-11.1v-2c-1.32-0.32-2.64-0.65-4-1v-2c-0.87-0.26-1.73-0.53-2.62-0.81-3.3-1.16-6.29-2.57-9.38-4.19v-2c-8.83-2.67-16.9-3.43-26.1-3.31-1.8 0-1.8 0-3.63-0.01-10.3 0.06-10.3 0.06-20.2 2.32l-1 2c-0.9 0.14-1.79 0.28-2.71 0.42-3.68 0.65-5.76 1.84-8.85 3.9-0.91 0.59-1.82 1.19-2.76 1.8-5.49 3.52-5.49 3.52-8.68 8.88l-3 2c-4.19 3.41-5.33 7-7 12h-2c-0.99 2.32-1.98 4.63-3 7h-2c0.02 0.6 0.05 1.19 0.07 1.8 0.1 4.57 0.02 8.03-2.07 12.2-1.76 5.28-2.1 9.77-1.95 15.3 0.03 1.22 0.03 1.22 0.06 2.46 0.04 1.72 0.08 3.44 0.13 5.16 0.07 2.59 0.13 5.19 0.18 7.79 0.28 11.6 0.96 22.5 5.58 33.3 0.3 0.77 0.6 1.53 0.91 2.32 2.01 4.92 4.12 8.04 8.09 11.7 0.33 1 0.66 1.98 1 3 10.4 13.8 27.1 21.6 44 24 18.2 1.98 35.3-3.13 50-14.2 6.8-5.84 11.4-12.2 16-19.8 1.79-1.78 4.45-1.17 6.87-1.2 1.26-0.02 2.52-0.04 3.82-0.06 1.39-0.02 2.79-0.03 4.19-0.05l4.32-0.06c3.04-0.05 6.08-0.09 9.13-0.13 3.82-0.05 7.64-0.1 11.5-0.16 17.7-0.25 35.5-0.41 53.2-0.34-0.55 3.38-1.05 5.09-3 8-0.57 2.76-0.95 5.52-1.34 8.31-0.73 2.96-1.83 4.31-3.66 6.69-0.8 2.06-1.52 4.15-2.19 6.26-0.34 1.07-0.69 2.15-1.04 3.26-0.25 0.82-0.51 1.64-0.77 2.48h-2c-0.14 0.58-0.29 1.16-0.44 1.76l-1.56 6.24h-2c-0.39 1.31-0.39 1.31-0.78 2.64-1.24 3.42-2.76 6.18-4.72 9.24-0.61 0.97-1.22 1.93-1.84 2.93-0.55 0.72-1.1 1.45-1.66 2.19h-2c-0.26 0.59-0.53 1.17-0.8 1.77-2.1 3.91-5.21 6.98-8.2 10.2-0.51 0.57-1.03 1.14-1.56 1.73-27.5 29-67.8 39.8-106 41.3-1.06 0.05-2.13 0.09-3.23 0.13-39.6 0.77-79.4-12.3-108-39.8-1.47-1.42-2.92-2.85-4.38-4.28-0.75-0.69-1.5-1.39-2.27-2.11-5.62-5.34-10.4-11.4-14.7-17.9v-2c-0.99-0.33-1.98-0.65-3-1-1.82-2.83-1.82-2.83-3.69-6.37-0.62-1.16-1.24-2.33-1.88-3.52-1.43-3.11-1.43-3.11-1.43-6.11h-2c-1.16-3.16-2.3-6.33-3.44-9.5-0.32-0.88-0.65-1.77-0.98-2.68-1.48-4.15-2.73-8.01-3.18-12.4-0.13-1.12-0.26-2.25-0.4-3.41-0.66-0.33-1.32-0.65-2-1-0.56-2.58-0.56-2.58-1-5.81-0.5-4.19-0.5-4.19-2.03-8.05-1.53-3.36-1.4-6.88-1.53-10.5-0.21-4.97-0.58-9.72-1.44-14.6-0.54-7.9 0.24-15.8 0.94-23.7 0.08-1 0.17-1.99 0.26-3.01 0.09-0.93 0.17-1.86 0.26-2.82 0.08-0.84 0.16-1.68 0.24-2.54 0.3-1.95 0.3-1.95 1.3-2.95 0.03-2.16-0.07-4.31-0.16-6.48 0.2-3.09 1.14-5.59 2.16-8.52 0.5-2.11 0.98-4.24 1.44-6.37 1.16-5.1 2.51-9.82 4.56-14.6 0.48-1.14 0.96-2.28 1.45-3.45 4.4-10.4 4.4-10.4 6.55-14.6h2c0.15-1.08 0.15-1.08 0.29-2.19 0.81-3.2 2.05-5.04 4.02-7.68 2.86-3.93 5.37-7.86 7.69-12.1h2c0.24-0.56 0.48-1.13 0.73-1.72 1.52-2.72 3.34-4.54 5.58-6.71 0.81-0.79 1.62-1.58 2.46-2.4 1.1-1.07 1.1-1.07 2.23-2.17 0.83-0.86 1.65-1.73 2.5-2.62 2.97-2.82 6.15-5.26 9.41-7.73 2.07-1.55 2.07-1.55 3.62-3.22 1.68-1.63 3.34-2.58 5.41-3.67 3.7-2 7.32-4.09 10.9-6.26 50.3-29.2 122-24.7 170 6.88zm49.5 62.6 1 2zm4 11 1 3zm1 4 1 2zm-298 19 1 3zm82 18v37h1v-37h-1zm1 38 1 2zm-84 7 1 4z" fill="#000102"/>
<path transform="translate(430 35.3)" d="m0 0c11.1 8.86 18.8 19.8 24.7 32.7 0.29 0.62 0.58 1.24 0.87 1.87 2.4 5.34 3.24 10.1 3.45 15.9 0.04 1.14 0.08 2.27 0.13 3.44 0.04 1.23 0.07 2.46 0.11 3.72 0.05 1.3 0.09 2.6 0.13 3.93 0.68 22.2 0.3 44.4-0.19 66.6-0.51 23.4-0.9 46.8 0.06 70.2 2.13 54 2.13 54-16 74.7-1.49 1.56-3.01 3.1-4.56 4.62-0.63 0.64-1.27 1.27-1.93 1.93-13.9 13-30.5 17.5-49.1 17.2-17.1-0.65-34.1-8.76-45.9-21.2-10.6-12.4-20.1-28.8-20.1-45.6-0.01-0.66-0.01-1.32-0.01-2v-6.61-4.75c-0.01-4.3-0.01-8.61 0-12.9v-13.6c-0.01-7.63 0-15.3 0-22.9 0.01-8.75 0.01-17.5 0-26.3 0-7.55-0.01-15.1 0-22.7v-13.5c-0.01-16.2-0.01-32.4 0.52-48.6 0.03-1.06 0.06-2.13 0.09-3.22 0.35-9.24 1.91-17.1 6.15-25.4 0.35-0.69 0.7-1.38 1.06-2.09 9.96-19 27.2-31.9 47.4-38.6 18.6-4.67 38 2.26 53.2 12.9zm-44.3 8.72c-1.34 2.57-1.34 2.57-2 5 3.57 2.38 6.5 2.47 10.6 2.82 6.06 0.61 10.6 1.71 15.8 5.16 1.57 1.2 1.57 1.2 3.6 1.02 0.39 0.88 0.39 0.88 0.8 1.77 1.27 2.35 2.68 3.98 4.51 5.92 6.89 7.69 9.86 14.6 9.81 24.8v2.27c0 2.48-0.01 4.96-0.02 7.44v5.16c-0.01 4.52-0.02 9.05-0.03 13.6-0.01 4.62-0.01 9.24-0.02 13.9-0.01 9.06-0.03 18.1-0.05 27.2 4.95 1.95 4.95 1.95 10 1 0.12-9.89 0.21-19.8 0.26-29.7 0.03-4.59 0.06-9.19 0.12-13.8 0.05-4.44 0.08-8.89 0.1-13.3 0.01-1.68 0.02-3.37 0.05-5.05 0.22-14.3-1.54-28.4-10.5-40.1-0.83-1.27-0.83-1.27-1.69-2.56-7.88-8.31-20.2-15.6-31.9-16-3.82 0.28-6.53 0.93-9.44 3.56zm51 30 1 2zm-104 105c-0.29 2.97-0.4 5.73-0.37 8.71 0 0.89-0.01 1.78-0.01 2.69-0.01 2.95 0 5.9 0.02 8.85v6.17c0 4.31 0.01 8.62 0.03 12.9 0.02 5.51 0.02 11 0.01 16.5 0 4.25 0.01 8.49 0.02 12.7v6.09c-0.4 17.7-0.4 17.7 4.43 34.5 0.35 0.74 0.7 1.47 1.07 2.23 0.26 0.52 0.53 1.04 0.8 1.58h2c1.16 1.66 1.16 1.66 2.5 3.94 8 12.2 20.9 19.9 35 23.6 14.1 2.79 29.2 1.55 41.5-6.5 11.4-8.02 21.4-18.6 26-32 3.37-19.4 2.2-39.7 2.08-59.4-0.04-7.33-0.07-14.7-0.09-22-0.01-2.54-0.03-5.09-0.05-7.64-0.01-1.55-0.01-3.1-0.02-4.65-0.01-0.7-0.01-1.4-0.02-2.13-0.01-3.03 0.13-5.31 1.1-8.22-14.7-0.2-29.4-0.38-44-0.54-6.82-0.08-13.6-0.16-20.4-0.26-6.58-0.09-13.2-0.16-19.7-0.23-2.51-0.03-5.02-0.06-7.53-0.1-3.51-0.05-7.02-0.09-10.5-0.12-1.05-0.02-2.1-0.04-3.17-0.06-0.96 0-1.91-0.01-2.9-0.01-1.24-0.02-1.24-0.02-2.51-0.03-2.69 0.44-3.56 1.15-5.14 3.35zm-10 89 1 4zm18 26 1 2z" fill="#FB0807"/>
<path transform="translate(566 20.9)" d="m0 0c1.68-0.01 1.68-0.01 3.4-0.02h3.74c1.95-0.01 1.95-0.01 3.94-0.02 3.57-0.01 7.14-0.02 10.7-0.02 2.24 0 4.48-0.01 6.72-0.01 7.05-0.01 14.1-0.02 21.1-0.03 8.08 0 16.2-0.02 24.2-0.05 6.27-0.02 12.5-0.03 18.8-0.03 3.72 0 7.45-0.01 11.2-0.03 39.5-0.18 76.8 4.6 110 26.8 1.66 1.09 3.35 2.13 5.06 3.14 2.89 1.78 4.94 4.04 7.34 6.44 1.15 0.85 2.32 1.69 3.5 2.5 6.34 4.42 11.7 10.4 16.5 16.5v2h2c1.46 1.97 2.81 3.93 4.12 6 0.38 0.57 0.75 1.15 1.13 1.73 0.93 1.42 1.84 2.85 2.75 4.27l-2 1-1 2-2-1v8l4 2c-0.99 1.32-1.98 2.64-3 4v-3h-5v-6c-2.97-0.99-2.97-0.99-6-2v-2l-2-1c-0.22-0.99-0.22-0.99-0.44-2-0.18-0.66-0.37-1.32-0.56-2-0.99-0.33-1.98-0.66-3-1v-5c-0.95-0.06-1.9-0.12-2.88-0.19-3.12-0.81-3.12-0.81-4.56-3.25-0.56-2.56-0.56-2.56 0.44-4.56h-6v-2c-5.36-2.17-8.37-3.09-14.1-2-5.68 0.93-10.2 1.18-15.9 0l-3-3c-3.61-0.73-3.61-0.73-7-1l2-1v-2c-2.48 0.5-2.48 0.5-5 1l-1-3c-3.47 0.5-3.47 0.5-7 1v-3c-1.79 0.14-3.58 0.29-5.38 0.44-0.99 0.08-1.99 0.16-3.02 0.24-2.58 0.17-2.58 0.17-4.6 1.32v-2l-4-1 1-2h-7c3-2 3-2 7-2v-3c-2.31-0.33-4.62-0.66-7-1 3.35-2.23 5.08-2.12 9-1.99 2.16 0.07 2.16 0.07 4.81-0.7 0.72-0.1 1.45-0.2 2.19-0.31 1.81 1.44 1.81 1.44 3 3l-3 3h9c-1.27-4.82-1.27-4.82-5-8l1-1-2-1v3h-21l2-2c-1.98-0.66-3.96-1.32-6-2l1-2-8-1 1-2h-2l-1 3-1 1h6v1h-20v-2l-4-1v-2c-1.03 0.02-1.03 0.02-2.08 0.04-0.9 0-1.8 0.01-2.73 0.02-1.34 0.02-1.34 0.02-2.71 0.04-2.48-0.1-2.48-0.1-5.48-1.1v2h-3v-2h-2v-2h13c-0.5-0.99-0.5-0.99-1-2-3.12-0.73-5.98-1-9.19-1-2.81 0-2.81 0-5.81-1-2.04 0-4.09 0.06-6.13 0.16-1.2 0.05-2.4 0.1-3.63 0.16-1.88 0.09-1.88 0.09-3.8 0.18-2.48 0.12-4.96 0.23-7.44 0.34-1.66 0.08-1.66 0.08-3.34 0.17-2.66-0.01-2.66-0.01-4.66-1.01v3c5.05 1.04 9.87 1.1 15 1v2c-2.33 0.38-4.66 0.71-7 1-0.5-0.49-0.5-0.49-1-1-1.67-0.04-3.33-0.04-5 0v3h2v2l2 1c-0.57 0.19-1.13 0.39-1.71 0.59-1.11 0.39-1.11 0.39-2.23 0.79-1.09 0.38-1.09 0.38-2.21 0.77-2.04 0.7-2.04 0.7-2.85 2.85h-2l-1 6h5l-4 3 4 2c-3.14 1.86-5.37 2.2-9 2v-2h-2c-0.5 0.99-0.5 0.99-1 2v-2h-2v-2h5c-0.99-0.49-0.99-0.49-2-1l1-3-1-1c-0.04-2-0.04-4 0-6h-8c0.49 1.49 0.49 1.49 1 3l-1 1c2.32 1.55 4.51 2.8 7 4v2h-3l-1 4c-2.97 0.5-2.97 0.5-6 1v-2h-3l1-3c2.06-0.69 2.06-0.69 4-1h-5l-1-5-5 2v3l-1 1 3 2c0.19 2.63 0.19 2.63 0 5h3v4h5c-0.5 0.99-0.5 0.99-1 2-2.31 0.73-4.65 1.4-7 2l1 2c2.94 0.03 5.87 0.05 8.81 0.06 1.25 0.02 1.25 0.02 2.53 0.03 1.2 0 1.2 0 2.43 0.01 1.11 0.01 1.11 0.01 2.24 0.01 2.2-0.03 2.2-0.03 4.99-1.11v2c1.48 0.5 1.48 0.5 3 1-4.69 1.27-9.03 0.91-13.8 0.56-1.18-0.08-1.18-0.08-2.39-0.16-1.93-0.12-3.87-0.26-5.8-0.4v2c2.97 0.33 5.94 0.66 9 1v3c-1.11 0.29-2.23 0.58-3.38 0.88-3.62 0.81-3.62 0.81-5.62 3.12h-3c0.49 4.95 0.49 4.95 1 10-0.99 0.33-1.98 0.66-3 1l2 2h-2c-0.19 1.45-0.19 1.45-0.38 2.94-0.2 1.01-0.41 2.02-0.62 3.06-0.99 0.5-0.99 0.5-2 1-0.84-6.9-1.02-13.1 0-20-1.98 0.5-1.98 0.5-4 1l-1 6c-2-3-2-3-3-6v6c-0.99 0.5-0.99 0.5-2 1v2c-1.98 0.5-1.98 0.5-4 1-0.17-3.4-0.33-6.79-0.5-10.2-0.05-0.96-0.1-1.92-0.14-2.91-0.05-0.93-0.09-1.86-0.14-2.82-0.04-0.85-0.09-1.7-0.13-2.58-0.09-2.51-0.11-5-0.09-7.5h-2c0-3 0-3 1-4h-1c-0.2-6.05-0.2-6.05 0-8l2-2-2-1c0-14 0-14 1-18h9l1 3h5c0.49-1.48 0.49-1.48 1-3h5l-5-3 2-1c-0.5-0.99-0.5-0.99-1-2-0.99-0.33-1.98-0.66-3-1v2h-2v-2h-5v-1c5.75-1.12 5.75-1.12 8 0l-2-3c-2.62-0.42-2.62-0.42-5.66-0.29-1.13 0.01-2.25 0.02-3.4 0.03-1.18 0.02-2.35 0.05-3.57 0.07-1.18 0.02-2.36 0.03-3.58 0.04-2.93 0.04-5.86 0.09-8.79 0.15 1.66 0.23 1.66 0.23 3.35 0.47 2.63 0.38 5.09 0.82 7.65 1.53-1.67 0.33-3.33 0.67-5 1-1.33 0.31-1.33 0.31-2.69 0.63-2.31 0.37-2.31 0.37-4.31-0.63v2l2 1h-2l-1 7h-2l-1 4h-2v37c-2-2-2-2-2.24-4.33 0-0.97 0.01-1.94 0.01-2.95v-3.33c0.01-1.19 0.02-2.39 0.03-3.62 0.01-1.21 0.01-2.43 0.01-3.69 0.01-3.9 0.04-7.8 0.06-11.7 0.01-2.65 0.02-5.29 0.03-7.93 0.02-6.48 0.06-13 0.1-19.4 2.57-1.28 4.4-1.13 7.28-1.14z" fill="#000102"/>
<path transform="translate(1479,23)" d="m0 0v2c-2.02-0.03-4.04-0.07-6.05-0.1-2.03-0.03-2.03-0.03-3.95 1.1l2 2h-4v-2h-4l-1 3c-2.97-0.33-5.94-0.66-9-1v2h-2v-2h-2v-2c1.98-0.33 3.96-0.66 6-1l-16-1 4 2c-1.68 1.68-3.82 1.23-6.13 1.32-1.55 0.06-1.55 0.06-3.13 0.12-1.64 0.06-1.64 0.06-3.3 0.12-1.64 0.07-1.64 0.07-3.31 0.13-2.71 0.11-5.42 0.21-8.13 0.31 10.9 0.5 10.9 0.5 22 1v1c-9.9 0.5-9.9 0.5-20 1l-1 2 10 1v1c-9.06 2.15-17.8 2.21-27 2 0.49 2.48 0.49 2.48 1 5h-7c-0.49-1.98-0.49-1.98-1-4l-1 2h-3c-0.99-1.48-0.99-1.48-2-3-2.58-0.25-2.58-0.25-5 0-0.49 2.48-0.49 2.48-1 5-3.13 1.01-4.86 0.78-8 0-2.19 0.38-2.19 0.38-4 1-0.19 0.96-0.19 0.96-0.38 1.94-0.2 0.68-0.41 1.36-0.62 2.06l-2 1c0.99 1.65 1.98 3.3 3 5 2.24-1 3.88-1.88 5.62-3.62l1.38-1.38h2c1.11 3.33 0.84 5.62 0 9-11 0-11 0-14.4-0.04-1.31 0-2.62-0.01-3.98-0.02-1.3-0.01-2.61-0.03-3.96-0.04-3.05 0.08-5.7 0.37-8.66 1.1v2c-0.93 0.14-1.86 0.29-2.81 0.44-3.2 0.48-3.2 0.48-6.19 1.56-1.22 2.07-1.22 2.07-1 5h-5v2l4 2c-3.75 3-3.75 3-6 3v2c-1.79 0.94-3.58 1.89-5.37 2.83-1.95 1.16-1.95 1.16-2.63 4.17h-2v2h-3c-0.14 1.26-0.29 2.52-0.44 3.81-0.3 2.62-0.72 4.66-1.56 7.19-2.47 0.5-2.47 0.5-5 1v2h-2c-0.12 1.67-0.12 1.67-0.25 3.38-0.75 3.62-0.75 3.62-2.81 5.06-0.96 0.28-0.96 0.28-1.94 0.56 0.49 0.99 0.49 0.99 1 2h-3c0.06 1.05 0.12 2.1 0.19 3.19-0.21 4.12-1 5.44-3.19 8.81-0.72 2.32-1.4 4.65-2 7l2 1c-0.38 2.44-0.38 2.44-1 5-2.67 1.33-4.17 0.67-7 0l-1-3-2 2 1-8h5v-2l-2-1c-0.49 0.99-0.49 0.99-1 2l-2-3c-1.53 3.15-2 5.14-2 8.69v3.31l-2 2c-0.4 2.32-0.74 4.66-1 7 0.99 0.33 1.98 0.66 3 1 1.19 3.06 1.19 3.06 2 6l-5 1c-0.99-2.48-0.99-2.48-2-5h-2c-2.23-5.94-1.86-9.86-0.31-15.9 0.17-0.76 0.35-1.52 0.53-2.3 1.82-7.66 4.73-14.8 7.84-22 0.51-1.18 1.02-2.36 1.54-3.58 1.07-2.43 2.18-4.81 3.4-7.17h2c0.15-1.09 0.15-1.09 0.29-2.2 0.81-3.2 2.05-5.04 4.02-7.68 2.86-3.93 5.37-7.85 7.69-12.1h2c0.24-0.57 0.48-1.14 0.73-1.72 1.52-2.73 3.34-4.55 5.58-6.72 0.81-0.79 1.62-1.58 2.46-2.39 1.1-1.08 1.1-1.08 2.23-2.17 0.83-0.87 1.65-1.73 2.5-2.62 2.97-2.83 6.15-5.27 9.41-7.73 2.07-1.56 2.07-1.56 3.62-3.22 1.68-1.63 3.34-2.58 5.41-3.68 3.7-1.99 7.32-4.09 10.9-6.25 36.5-21.2 84.7-23.5 125-13.5z" fill="#000002"/>
<path transform="translate(1086,18)" d="m0 0c24.5 0.91 50.3 11.9 69.9 26.4 2.26 1.68 4.59 3.2 6.95 4.71 3.49 2.31 6.35 4.79 9.19 7.88 0.76 0.72 1.53 1.44 2.31 2.19 1.69 1.81 1.69 1.81 1.69 3.81 0.64 0.27 1.28 0.54 1.94 0.81 2.06 1.19 2.06 1.19 3.06 4.19 0.58 0.27 1.15 0.54 1.75 0.81 3.37 1.78 4.99 4.12 7.25 7.19v3c0.87 0.28 0.87 0.28 1.75 0.56 2.67 1.71 3.67 3.63 5.12 6.39 1.24 2.24 2.66 4.27 4.13 6.36 3.14 4.62 5.14 9.45 7 14.7h-4c-0.27 1.13-0.54 2.27-0.81 3.44-0.39 1.17-0.79 2.35-1.19 3.56-1.48 0.5-1.48 0.5-3 1l-1-4h-2c-1-3-1-3-1.44-5.12-0.28-0.93-0.28-0.93-0.56-1.88l-2-1c-0.37-1.3-0.69-2.62-1-3.94-0.64-2.22-0.64-2.22-2-4.06-3.28-1.32-6.49-1.74-10-2v-6c-1.42 0.28-1.42 0.28-2.88 0.56-3.12 0.44-3.12 0.44-5.12-0.56 0.88-5.88 0.88-5.88 2-7-0.41-2.05-0.41-2.05-1-4h2v-2c-1.22 0.23-2.43 0.45-3.69 0.69-4.08 0.52-5.97-0.18-9.31-2.69-1.33-0.68-2.66-1.35-4-2l-2-1v-2c-1.48-0.5-1.48-0.5-3-1 0.99-0.33 1.98-0.66 3-1l-7-7v-3l-2-1c-0.62-2.06-0.62-2.06-1-4-1.48-0.19-2.96-0.38-4.44-0.56-0.82-0.11-1.64-0.21-2.49-0.32-0.69-0.04-1.37-0.08-2.07-0.12l-1 1 2 2c-0.8 0.12-1.61 0.25-2.44 0.38-0.84 0.2-1.69 0.41-2.56 0.62-0.49 0.99-0.49 0.99-1 2h-5c-0.55-2.08-1-3.84-1-6-3.98-0.73-3.98-0.73-8-1v3c2.97-0.49 2.97-0.49 6-1v3c-3.16 0.94-5.97 1.11-9.25 1.06-0.89-0.01-1.78-0.02-2.7-0.02-0.68-0.02-1.35-0.03-2.05-0.04l1-4h3v-2c-3.96 0.49-3.96 0.49-8 1v4l2 1-2 2 1 2-2 2c1.48 0.49 1.48 0.49 3 1 0.49-0.99 0.49-0.99 1-2h3v2h2v-2c0.95 0.19 1.9 0.37 2.88 0.56 3.02 0.73 3.02 0.73 5.12-0.56v2c2.97-0.66 5.94-1.32 9-2v6c0.99 0.5 0.99 0.5 2 1v2c-0.76 0.08-1.53 0.16-2.31 0.25-3.21 0.9-3.98 1.97-5.69 4.75l-2-4c-3.47 0.46-6.67 0.89-10 2-0.97-0.16-1.94-0.33-2.94-0.5-2.87-0.47-4.4-0.58-7.06 0.5l-1 2c1.48 0.5 1.48 0.5 3 1h-4v-5h-3c1-3 1-3 2-4-1.98-0.66-3.96-1.32-6-2v-2h2c-0.19-0.62-0.37-1.24-0.56-1.88-0.44-2.12-0.44-2.12 0.56-4.12l-3-2h4l-2-1v-2c3.59-1.87 7.28-3.43 11-5h-8v-2h7v-2h-7l1-2h2l-1-3c0.67 0.01 1.33 0.01 2.02 0.02 3.03 0.02 6.07 0.03 9.1 0.04 1.05 0.01 2.1 0.02 3.18 0.03 5.04 0.01 9.72-0.18 14.7-1.09l2 1c1.68-0.28 3.35-0.61 5-1-7.06-3.81-14.4-6.4-22-9 0.49 0.99 0.49 0.99 1 2 0.49 0.99 0.49 0.99 1 2 0.99-0.33 1.98-0.66 3-1l2 4c-3.14 1.05-3.99 1-7 0-0.49-0.5-0.49-0.5-1-1-0.72 0.04-1.44 0.08-2.19 0.12-2.81-0.12-2.81-0.12-5.87-1.68-3.38-1.66-3.56-1.34-6.94-0.44-1.74-0.05-3.47-0.17-5.2-0.34-1.47-0.14-1.47-0.14-2.97-0.28-1.02-0.11-2.03-0.21-3.08-0.32-1.03-0.1-2.06-0.2-3.13-0.3-2.54-0.25-5.08-0.5-7.62-0.76 0.64-0.12 1.28-0.25 1.94-0.38 0.68-0.2 1.36-0.41 2.06-0.62l1-2h7c-0.16-0.6-0.33-1.2-0.5-1.81-0.5-2.19-0.5-2.19-0.5-5.19z" fill="#000102"/>
<path transform="translate(990,197)" d="m0 0h1c0.16 0.96 0.32 1.91 0.48 2.89 1.51 8.36 3.53 15.5 7.52 23.1h2c2 3.75 2 3.75 2 6 1.25 1.42 1.25 1.42 3 3 0.68 0.72 1.36 1.44 2.06 2.19 12.9 12.6 26.6 18 43.9 21.4 3.06 0.65 6.03 1.53 9.02 2.43v2h11v1c-13.3 0.54-25.1-0.77-38-4 0.99 0.33 1.98 0.66 3 1 2.36 1.14 4.68 2.35 7 3.56 2.4 1.15 4.41 1.94 7 2.44-2 2-2 2-4.38 2.2-0.91-0.03-1.81-0.05-2.74-0.08-0.92-0.01-1.83-0.03-2.76-0.05-0.7-0.02-1.4-0.05-2.12-0.07 1.14 1.37 1.14 1.37 4.16 1.1 1.29-0.01 2.58-0.03 3.9-0.04 1.29-0.01 2.58-0.02 3.91-0.02 1-0.02 2-0.03 3.03-0.04-0.49 1.49-0.49 1.49-1 3 3.48 2.32 5.31 2.34 9.44 2.56 6.25 0.35 6.25 0.35 8.85 1.09 0.56 0.12 1.13 0.23 1.71 0.35l2-2c2.12-0.62 2.12-0.62 4-1v-3c3.11-2.11 5.06-1.96 8.65-1.29 5.4 0.67 10.9 0.36 16.4 0.29l-1 2h-16v5h3l1 4c-3.38 0.19-3.38 0.19-7 0l-2-3-1 2c-2.06 1.12-2.06 1.12-4 2 1.98 0.66 3.96 1.32 6 2-0.49 1.98-0.49 1.98-1 4h-3c-0.49 1.49-0.49 1.49-1 3v-3c-1.37 0.02-1.37 0.02-2.77 0.04-1.79 0.01-1.79 0.01-3.61 0.02-1.18 0.01-2.36 0.03-3.58 0.04-3.04-0.1-3.04-0.1-5.04-1.1v-2h-8v2c-6.09 1.45-11.7 2.2-18 1.97-2.1-0.12-2.1-0.12-4.03 1.03-0.19-1.7-0.19-1.7-0.38-3.44-0.2-1.17-0.41-2.35-0.62-3.56-0.99-0.5-0.99-0.5-2-1v-2h-3v-5c-0.99-0.5-0.99-0.5-2-1l1-1-5-1-0.94 1.88c-0.68 1.37-1.37 2.74-2.06 4.12l5 1c-0.25 1.88-0.25 1.88-1 4-1.81 1.31-1.81 1.31-4 2-2.25-0.38-2.25-0.38-4-1-0.12-2.88-0.12-2.88 0-6l2-2c-0.99-0.33-1.98-0.66-3-1v-3c-1.98 0.5-1.98 0.5-4 1l-2-3c0.92-0.03 1.83-0.05 2.77-0.08 1.19-0.05 2.38-0.11 3.61-0.17 1.18-0.05 2.36-0.09 3.58-0.14 3.15-0.27 3.15-0.27 4.45-2.66 0.2-0.64 0.39-1.29 0.59-1.95h-4l-1-2c-0.99 0.33-1.98 0.66-3 1-2.19-0.94-2.19-0.94-4-2l-1 1c-1.47 0.28-2.95 0.5-4.44 0.69-0.8 0.1-1.6 0.21-2.43 0.32-2.13-0.01-2.13-0.01-4.13-2.01l4-2-2-2v-4l-2-1h2l1-2c2.84 0 5.24 0.4 8 1-0.64-0.6-1.28-1.2-1.94-1.81-2.06-2.19-2.06-2.19-3.06-5.19-2.02-0.73-2.02-0.73-4-1l-1 2c-0.5-1.49-0.5-1.49-1-3-0.6-0.14-1.2-0.29-1.81-0.44-3.11-0.8-4.29-1.98-6.19-4.56-0.49-3.88-0.57-6.08 1.5-9.44 0.5-0.51 0.99-1.03 1.5-1.56-0.99-0.33-1.98-0.66-3-1-2.32-3.35-2.54-7.02-3-11l-4-1c0.96-0.4 0.96-0.4 1.94-0.81 2.39-1.08 2.39-1.08 3.06-4.19 0.37-1.56 0.72-3.12 1.06-4.69 0.18-0.81 0.36-1.61 0.54-2.45 0.13-0.61 0.26-1.23 0.4-1.86zm0 5 1 2z" fill="#000202"/>
<path transform="translate(1480,25)" d="m0 0c7.86 0.39 13.9 2.68 21 6 0.62 0.29 1.25 0.58 1.89 0.87 9.58 4.46 18.9 9.37 27.1 16.1v2l5 2v2l5 2v2h2v2c0.58 0.23 1.15 0.45 1.75 0.69 2.87 1.67 4.24 3.65 6.25 6.31 1.08 1.28 2.16 2.55 3.25 3.81 0.78 0.91 0.78 0.91 1.58 1.83 0.58 0.68 0.58 0.68 1.17 1.36-0.49 0.99-0.49 0.99-1 2l-5-1v-2h-2l-2-2h-2l-1-3c-2.77-2.3-2.77-2.3-5.62-1.75-0.79 0.25-1.57 0.5-2.38 0.75-0.49 0.99-0.49 0.99-1 2l-8-1c-0.49 0.99-0.49 0.99-1 2v-2l-8 1-1 3h-5l-2-4c-1.11 0.19-2.23 0.37-3.38 0.56-3.62 0.44-3.62 0.44-5.62-0.56-0.49 0.99-0.49 0.99-1 2-0.99 0.33-1.98 0.66-3 1 0.99 0.5 0.99 0.5 2 1-1.98 0.5-1.98 0.5-4 1l-1-3c-4.24-1.01-4.24-1.01-8.38-0.06-0.53 0.35-1.07 0.7-1.62 1.06 0.99 0.5 0.99 0.5 2 1 0.62 3.06 0.62 3.06 1 6-4.79 1.63-8.06 2.21-13 1l-1 4c-1.48-0.5-1.48-0.5-3-1v-2c-2.8-1.24-2.8-1.24-4.92-0.5-3.58 0.86-6.6-0.51-10.1-1.5v-1h7v-2c0.57 0.07 1.14 0.14 1.72 0.22 4.8 0.58 9.45 0.88 14.3 0.78v-3h3v-2h-2l-1-2-3-2c0.99-0.5 0.99-0.5 2-1l-2-2h-1v1h-7v3c-1.98 0.5-1.98 0.5-4 1-1.29-2.58-1-2.93-1-6l-10-1v-1c4.95-0.49 4.95-0.49 10-1-0.49-1.48-0.49-1.48-1-3 0.99-0.33 1.98-0.66 3-1v5c0.91-0.33 1.82-0.66 2.75-1 6.54-1.88 13.7-1.64 20.2 0l1-1c1.69-0.07 3.38-0.08 5.06-0.06 0.92 0.01 1.84 0.02 2.79 0.02 0.71 0.02 1.42 0.03 2.15 0.04l1 3 10 1c-0.49 0.99-0.49 0.99-1 2h4c0.12-0.95 0.25-1.9 0.38-2.88 0.62-3.12 0.62-3.12 2.62-5.12 2.32-0.4 4.66-0.74 7-1-0.49-1.48-0.49-1.48-1-3-1.48 0.49-1.48 0.49-3 1l-2-2c-2.5-0.33-2.5-0.33-5 0l-2 2c-0.49-1.98-0.49-1.98-1-4l10-1c0.14-0.8 0.29-1.61 0.44-2.44 0.56-2.56 0.56-2.56 1.56-3.56l-4-2v5c-0.49-1.98-0.49-1.98-1-4-0.56 0.23-1.11 0.45-1.69 0.69-3.24 0.44-4.62-0.94-7.31-2.69-2.19-0.7-2.19-0.7-4-1l2-2h-13v2h5l-1 4-13-1v-5h-22v-3c1.07-0.07 1.07-0.07 2.16-0.15 6.49-0.48 6.49-0.48 12.8-2.04 3.06-0.81 3.06-0.81 5.18 0.07 0.62 0.37 1.24 0.74 1.88 1.12 2.67 0.17 2.67 0.17 5 0-0.49-1.98-0.49-1.98-1-4h2v-2c-2.31-0.33-4.62-0.66-7-1v-1z" fill="#000102"/>
<path transform="translate(1404,21)" d="m0 0c-0.88 3.88-0.88 3.88-2 5h2l1-2c2.07-0.41 2.07-0.41 4.56-0.62 0.83-0.08 1.66-0.15 2.51-0.23 0.95-0.08 0.95-0.08 1.93-0.15l-2 4 4 1c-0.91 0.27-1.82 0.54-2.75 0.81-3.19 0.96-3.19 0.96-5.11 2.75-2.74 1.84-4.43 1.75-7.7 1.63-0.95-0.03-1.9-0.06-2.88-0.08-0.85-0.04-1.69-0.07-2.56-0.11-3.16-0.15-3.16-0.15-6.69 1.12-4.64 1.24-7.79 0.33-12.3-1.12l-1 3 2 2c-0.82 0.12-1.64 0.24-2.48 0.37-1.08 0.16-2.16 0.33-3.27 0.51-1.07 0.16-2.13 0.32-3.23 0.49-2.73 0.57-4.62 1.28-7.02 2.63-1.66 0.68-3.33 1.35-5 2l4 2-4 1 3 2c-1.67 0.22-1.67 0.22-3.38 0.44-3.44 0.34-3.44 0.34-5.62 1.56-0.8-0.08-1.61-0.16-2.44-0.25-1.27 0.12-1.27 0.12-2.56 0.25-1.61 2.38-1.61 2.38-3 5-1.33 0.67-2.67 1.33-4 2-0.81 2.05-0.81 2.05-1 4-1.18 0.09-1.18 0.09-2.38 0.19-2.84 0.54-2.84 0.54-3.93 3.25-0.78 2.44-0.78 2.44-0.69 4.56-1.81 0.62-1.81 0.62-4 1l-3-2c-0.69 2.49-1 4.38-1 7l-1 3h-4v2h-2l2 5h-2l-2 5h-3v-2h-3v7c-0.99 0.5-0.99 0.5-2 1-0.66 2.53-0.66 2.53-1 5l-4-1v2.31c0 4.02-0.22 6.13-2 9.69-0.38 1.66-0.72 3.32-1 5l-2-3-3 3c0.55-6.13 2.63-10.6 5.65-15.9 2.09-3.89 2.46-5.84 1.35-10.1 1.27-2.04 2.61-4.04 4-6 0.22-1.18 0.22-1.18 0.44-2.38 0.86-4 3.01-7.42 5.56-10.6h2c0.24-0.57 0.48-1.14 0.73-1.72 1.52-2.73 3.34-4.55 5.58-6.72 0.81-0.79 1.62-1.58 2.46-2.39 0.74-0.72 1.47-1.43 2.23-2.17 0.83-0.87 1.65-1.73 2.5-2.62 2.97-2.83 6.15-5.27 9.41-7.73 2.07-1.56 2.07-1.56 3.62-3.22 1.68-1.63 3.34-2.58 5.41-3.68 3.7-1.99 7.32-4.09 10.9-6.25 14.8-8.59 32.8-16.1 50.1-15.5z" fill="#010202"/>
<path transform="translate(1148,41)" d="m0 0c3.65 0.62 5.97 2.21 8.94 4.38 2.53 1.84 5.02 3.6 7.72 5.19 2.91 1.78 4.99 3.96 7.34 6.43 0.76 0.72 1.53 1.44 2.31 2.19 1.69 1.81 1.69 1.81 1.69 3.81 0.64 0.27 1.28 0.54 1.94 0.81 2.06 1.19 2.06 1.19 3.06 4.19 0.58 0.27 1.15 0.54 1.75 0.81 3.37 1.78 4.99 4.12 7.25 7.19v3c0.87 0.28 0.87 0.28 1.75 0.56 2.67 1.71 3.67 3.63 5.12 6.39 1.24 2.24 2.66 4.27 4.13 6.36 3.14 4.62 5.14 9.45 7 14.7h-4c-0.27 1.13-0.54 2.27-0.81 3.44-0.39 1.17-0.79 2.35-1.19 3.56-0.99 0.33-1.98 0.66-3 1l-1-4h-2c-1-3-1-3-1.44-5.12-0.28-0.93-0.28-0.93-0.56-1.88-0.99-0.5-0.99-0.5-2-1-0.37-1.3-0.69-2.62-1-3.94-0.64-2.22-0.64-2.22-2-4.06-3.28-1.32-6.49-1.74-10-2v-6c-0.95 0.19-1.9 0.37-2.88 0.56-3.12 0.44-3.12 0.44-5.12-0.56 0.88-5.88 0.88-5.88 2-7-0.41-2.05-0.41-2.05-1-4h2v-2c-1.22 0.23-2.43 0.45-3.69 0.69-4.08 0.52-5.97-0.18-9.31-2.69-1.33-0.68-2.66-1.35-4-2l-2-1v-2c-0.99-0.33-1.98-0.66-3-1 0.99-0.33 1.98-0.66 3-1l-7-7v-3l-2-1c1.47-3.87 3.5-4.97 7-7v-2c-1.63-1.38-3.29-2.72-5-4z" fill="#000102"/>
<path transform="translate(786,52)" d="m0 0h2l5 5c1.15 0.86 2.32 1.69 3.5 2.5 6.34 4.42 11.7 10.4 16.5 16.5v2h2c1.46 1.97 2.81 3.93 4.12 6 0.38 0.57 0.75 1.14 1.13 1.73 0.93 1.42 1.84 2.85 2.75 4.27-0.99 0.5-0.99 0.5-2 1-0.5 0.99-0.5 0.99-1 2-0.99-0.5-0.99-0.5-2-1v8l4 2c-0.99 1.32-1.98 2.64-3 4v-3h-5v-6c-1.98-0.66-3.96-1.32-6-2v-2c-0.99-0.5-0.99-0.5-2-1-0.14-0.66-0.29-1.32-0.44-2-0.18-0.66-0.37-1.32-0.56-2-0.99-0.33-1.98-0.66-3-1v-5c-0.95-0.06-1.9-0.12-2.88-0.19-3.12-0.81-3.12-0.81-4.56-3.25-0.56-2.56-0.56-2.56 0.44-4.56h-6v-2c-5.36-2.17-8.37-3.09-14.1-2-5.66 0.95-10.2 0.96-15.9 0l-1-3c3.38-1.04 6.48-1.08 10-1v-3l-2-1h2l-1-3c1-1.5 1-1.5 3-3 1.95-0.07 3.91-0.12 5.86-0.04 3.13 0.06 6.06-0.45 9.14-0.96l1-3z" fill="#000102"/>
<path transform="translate(1479,23)" d="m0 0v2c-3.03-0.05-3.03-0.05-6.05-0.1-2.03-0.03-2.03-0.03-3.95 1.1l2 2h-4v-2h-4l-1 3c-2.97-0.33-5.94-0.66-9-1v2h-2v-2h-2v-2c2.97-0.5 2.97-0.5 6-1l-16-1 4 2c-1.68 1.68-3.82 1.23-6.13 1.32-1.03 0.04-2.07 0.08-3.13 0.12-1.64 0.06-1.64 0.06-3.3 0.12-1.64 0.07-1.64 0.07-3.31 0.13-2.71 0.11-5.42 0.21-8.13 0.31 10.9 0.5 10.9 0.5 22 1v1c-9.9 0.5-9.9 0.5-20 1l-1 2 10 1v1c-9.06 2.15-17.8 2.21-27 2l1 5h-7l-1-4-1 2h-3l-2-3c-2.56-0.73-2.56-0.73-5-1 2.53-3.09 5.17-4.04 9-5 0.99 0.33 1.98 0.66 3 1 1.73 0.07 3.46 0.08 5.19 0.06 0.9-0.01 1.8-0.02 2.73-0.02 1.03-0.02 1.03-0.02 2.08-0.04l1-3c3.46-0.5 3.46-0.5 7-1-0.99-0.33-1.98-0.66-3-1v-3c-4.32 0.51-8.03 1.2-12 3l2-4h2v-2l-2-1c26-2.82 51.5-3.33 77 3z" fill="#020204"/>
<path transform="translate(749,225)" d="m0 0c0.5 0.99 0.5 0.99 1 2h3l2-2c0.68 0.71 0.68 0.71 1.38 1.44 1.55 1.65 1.55 1.65 3.62 2.56l-7 2-1 7-4-1-1 7-4-1-1 4v-2h-2l-1 4h-4v2c-0.99 0.5-0.99 0.5-2 1l-1 2c-1.67 0.67-3.33 1.33-5 2l-1 2h-3c-0.5 0.99-0.5 0.99-1 2v-2l-8 1v2c-0.7 0.2-1.4 0.41-2.12 0.62-0.91 0.27-1.82 0.54-2.76 0.82-0.9 0.26-1.8 0.53-2.74 0.81-3.07 0.97-4.63 1.82-6.63 4.29-2.32 1.93-3.76 1.89-6.75 1.9-0.87 0.02-1.73 0.04-2.62 0.06-2.38-0.5-2.38-0.5-4.07-2.4-0.43-0.69-0.86-1.39-1.31-2.1l-2-2c3.38-0.12 3.38-0.12 7 0l2 2c2-0.79 2-0.79 4-2l1-3c-0.99 0.5-0.99 0.5-2 1-1.71 0.07-3.42 0.08-5.12 0.06-0.92-0.01-1.83-0.02-2.76-0.02-0.7-0.02-1.4-0.03-2.12-0.04 2.9-1.66 4.92-2.24 8.25-2.12 1.24 0.04 2.48 0.08 3.75 0.12 0.14-0.95 0.14-0.95 0.28-1.91 0.24-0.69 0.47-1.38 0.72-2.09 2.75-1.06 5.28-1.86 8.12-2.56 1.51-0.4 3.01-0.79 4.51-1.19 0.74-0.2 1.47-0.39 2.23-0.59 2.09-0.64 3.97-1.45 5.94-2.37 3.42-1.38 3.91-1.2 7.2-0.29 2.15-1.18 2.15-1.18 4.12-2.94 3.7-3.06 3.7-3.06 5.88-3.06v-2l5-2v-3h2c0.25-0.54 0.5-1.07 0.75-1.62 1.55-2.94 3.38-5.64 5.25-8.38z" fill="#000102"/>
<path transform="translate(990,197)" d="m0 0h1c0.16 0.96 0.32 1.91 0.48 2.89 1.51 8.36 3.53 15.5 7.52 23.1h2c2 3.75 2 3.75 2 6 1.25 1.42 1.25 1.42 3 3 0.74 0.76 1.49 1.53 2.25 2.32 3.61 3.51 7.54 6.51 11.5 9.59 0.74 0.69 1.47 1.38 2.23 2.09v3h3v2c0.99 0.5 0.99 0.5 2 1-0.56-0.19-1.11-0.37-1.69-0.56-2.71-0.52-4.62 0.01-7.31 0.56-0.99-0.33-1.98-0.66-3-1v-3c-0.6 0.35-1.2 0.7-1.81 1.06-2.19 0.94-2.19 0.94-5.19-0.06l-1-3-2-1-1-3c-2.02-0.73-2.02-0.73-4-1l-1 2c-0.5-1.49-0.5-1.49-1-3-0.6-0.14-1.2-0.29-1.81-0.44-3.11-0.8-4.29-1.98-6.19-4.56-0.49-3.88-0.57-6.08 1.5-9.44 0.5-0.51 0.99-1.03 1.5-1.56-0.99-0.33-1.98-0.66-3-1-2.32-3.35-2.54-7.02-3-11l-4-1c0.96-0.4 0.96-0.4 1.94-0.81 2.39-1.08 2.39-1.08 3.06-4.19 0.37-1.56 0.72-3.12 1.06-4.69 0.18-0.81 0.36-1.61 0.54-2.45 0.13-0.61 0.26-1.23 0.4-1.86zm0 5 1 2z" fill="#010303"/>
<path transform="translate(1480,25)" d="m0 0c7.86 0.39 13.9 2.68 21 6 0.64 0.3 1.28 0.6 1.94 0.9 8.55 4.03 16.5 8.31 24.1 14.1-0.99 1.48-0.99 1.48-2 3-2.62 0.19-2.62 0.19-5 0l2-1-2-2c-0.99 0.33-1.98 0.66-3 1l2-4-4-2v5c-0.49-1.98-0.49-1.98-1-4-0.56 0.23-1.11 0.45-1.69 0.69-3.24 0.44-4.62-0.94-7.31-2.69-2.19-0.7-2.19-0.7-4-1l2-2h-13v2h5l-1 4-13-1v-5h-22v-3c1.07-0.07 1.07-0.07 2.16-0.15 6.49-0.48 6.49-0.48 12.8-2.04 3.06-0.81 3.06-0.81 5.18 0.07 0.62 0.37 1.24 0.74 1.88 1.12 2.67 0.17 2.67 0.17 5 0l-1-4h2v-2c-2.31-0.33-4.62-0.66-7-1v-1z" fill="#030305"/>
<path transform="translate(933,79)" d="m0 0h2c-0.58 3.92-2.56 5.96-5 9-5.94 8.75-5.94 8.75-7 19-1.5 2.81-1.5 2.81-3 5v2l-2 2c-2.32 6.12-3.66 12.6-5 19l3-3 2 2-1 3c-0.36 2.33-0.69 4.66-1 7 0.99-0.5 0.99-0.5 2-1l1 3c-0.5 0.99-0.5 0.99-1 2-0.76-0.17-1.53-0.33-2.31-0.5-4-0.74-5.21-0.82-8.69 1.5-1.63-1.85-1.63-1.85-3-5 0.27-3.57 1.2-6.93 2.12-10.4 0.23-0.92 0.46-1.84 0.69-2.78 1.32-5.2 2.97-9.97 5.19-14.8 0.37-1.32 0.73-2.65 1-4h2c0.11-0.7 0.21-1.4 0.32-2.12 0.77-3.27 2.02-5.89 3.56-8.88 0.76-1.52 0.76-1.52 1.55-3.06 4.12-7.72 4.12-7.72 6.57-8.94 0.43-1.11 0.43-1.11 0.88-2.25 1.27-3.12 2.85-5.27 5.12-7.75z" fill="#030304"/>
<path transform="translate(1137,212)" d="m0 0 2 1c-0.26 1.77-0.53 3.54-0.81 5.31-0.15 0.99-0.3 1.97-0.46 2.99-0.76 2.83-1.48 3.9-3.73 5.7l4 2-2 2c0.32 2.11 0.32 2.11 1 4h-3c0.49-1.49 0.49-1.49 1-3l-4-1-1 2h-2v4l-2 2c-0.62 0.64-1.24 1.28-1.88 1.94-2.12 2.06-2.12 2.06-4.24 3.62-2.14 1.48-2.14 1.48-3.88 4.44l-2 2h-4v2l-3 2-1 3c-5.37 0.97-5.37 0.97-8 1-2-1.44-2-1.44-3-3l4-3h-2v-2h4v-2c3.33-1.67 6.67-3.33 10-5v-2h2v-2c4.3-4.77 4.3-4.77 8-6 1.23-3.01 1.23-3.01 2-6h2l1-2 1 3c2.28-2.1 3.68-4.02 5-6.81 0.34-0.7 0.67-1.4 1.02-2.12 0.32-0.68 0.65-1.36 0.98-2.07l3-6zm-6 24 4 1c-0.99 0.33-1.98 0.66-3 1l-1-2zm-34 18c-2.65 1.46-3.89 2-7 2v-2c3.13-1.04 3.99-0.93 7 0z" fill="#030404"/>
<path transform="translate(1086,18)" d="m0 0c19.3 0.72 39.7 7.61 56 18 0.49 0.99 0.49 0.99 1 2-3.74-1.08-7.07-2.51-10.5-4.31-6.27-3.22-12.8-5.43-19.5-7.69 0.49 0.99 0.49 0.99 1 2 0.49 0.99 0.49 0.99 1 2 0.99-0.33 1.98-0.66 3-1l2 4c-3.14 1.05-3.99 1-7 0-0.49-0.5-0.49-0.5-1-1-0.72 0.04-1.44 0.08-2.19 0.12-2.81-0.12-2.81-0.12-5.87-1.68-3.38-1.66-3.56-1.34-6.94-0.44-1.74-0.05-3.47-0.17-5.2-0.34-1.47-0.14-1.47-0.14-2.97-0.28-1.02-0.11-2.03-0.21-3.08-0.32-1.03-0.1-2.06-0.2-3.13-0.3-2.54-0.25-5.08-0.5-7.62-0.76 0.64-0.12 1.28-0.25 1.94-0.38 0.68-0.2 1.36-0.41 2.06-0.62l1-2h7c-0.16-0.6-0.33-1.2-0.5-1.81-0.5-2.19-0.5-2.19-0.5-5.19z" fill="#020304"/>
<path transform="translate(567 20.9)" d="m0 0h3.49c1.22-0 2.43 0 3.68 0.01 1.17-0.01 2.34-0.01 3.54-0.01 7.93 0 15.8 0.41 23.6 1.13v6l-3-2v-1h-30c2.31 0.33 4.62 0.66 7 1 1.33 0.31 2.67 0.63 4 1-1.67 0.34-3.34 0.67-5 1-1.33 0.31-1.33 0.31-2.69 0.63-2.31 0.37-2.31 0.37-4.31-0.63v2l2 1h-2l-1 7h-2l-1 4h-2v37c-2-2-2-2-2.25-4.33 0.01-0.97 0.01-1.94 0.02-2.94v-3.34c0.01-1.19 0.02-2.38 0.03-3.61 0-1.22 0.01-2.44 0.01-3.69 0.01-3.91 0.04-7.81 0.06-11.7l0.03-7.92c0.02-6.49 0.05-13 0.1-19.5 2.65-1.32 4.67-1.13 7.64-1.13z" fill="#000102"/>
<path transform="translate(1557 223)" d="m0 0c1.2 0.01 2.41 0.02 3.65 0.03 1.95 0.01 1.95 0.01 3.95 0.02 1.38 0.02 2.76 0.03 4.14 0.05 1.38 0.01 2.77 0.02 4.16 0.03 3.4 0.02 6.81 0.06 10.2 0.1-2 2-2 2-5.69 2.19-1.48-0.01-2.96-0.03-4.43-0.07-0.76-0.01-1.51-0.02-2.29-0.03-1.86-0.02-3.73-0.05-5.59-0.09 1.21 0.43 1.21 0.43 2.44 0.87 2.56 1.13 2.56 1.13 3.56 3.13-0.99 0.33-1.98 0.66-3 1 2.97 0.49 2.97 0.49 6 1v2l-4-1-1 2-2-1c-3.12 0.64-3.12 0.64-4 3-1 2-1 2-3 4-2.31 0.61-4.57 1-6.94 1.31-2.25 0.51-2.25 0.51-3.34 2.75-0.35 0.96-0.35 0.96-0.72 1.94l-1-4-2 4v-7h-5l1-5h3v-2h2l1 2h8l-4-2c-0.12-3.38-0.12-3.38 0-7 2-2 2-2 4.89-2.23z" fill="#040505"/>
<path transform="translate(440,292)" d="m0 0c0 5.13-2.99 8.88-6.31 12.6-15.8 14.4-28.7 19.6-50.3 18.6-5.42-0.48-10.4-2.16-15.4-4.21-1.41-0.56-1.41-0.56-2.85-1.13-1.06-0.43-1.06-0.43-2.15-0.87v-2c-1.08-0.14-1.08-0.14-2.19-0.28-7.87-2.01-13.7-9.21-18-15.7-0.86-1.98-0.86-1.98 0.14-4.98 0.39 0.56 0.78 1.11 1.18 1.69 9.81 13.4 23.5 21 39.8 23.8 15.4 1.51 28.9-1.93 41.2-11.3 5.74-4.78 10.4-10.2 14.8-16.2z" fill="#000002"/>
<path transform="translate(1222,165)" d="m0 0c1.06 1.88 1.06 1.88 2 4l-1 2c-0.07 1.73-0.08 3.47-0.06 5.2 0.01 1.04 0.01 2.09 0.02 3.17 0.03 2.19 0.05 4.39 0.08 6.58 0.08 10.9 0.08 10.9-1.04 16l-2 2c-0.24 2.21-0.24 2.21-0.12 4.62 0.02 1.23 0.02 1.23 0.05 2.48 0.02 0.63 0.05 1.25 0.07 1.9-0.49-1.49-0.49-1.49-1-3h-2c-1.77-4.54-2.09-8.15-2-13-0.29-1.68-0.6-3.35-1-5l-4-1 2-1c-0.21-0.54-0.41-1.07-0.62-1.62-0.51-3.21 0.6-5.32 1.62-8.38-0.06-1.22-0.12-2.43-0.19-3.69 0.1-1.64 0.1-1.64 0.19-3.31 2.38-1.88 2.38-1.88 5-3l2-1v4c0.14-1.13 0.29-2.27 0.44-3.44 0.56-3.56 0.56-3.56 1.56-4.56zm-1 23v6h1v-6h-1z" fill="#000102"/>
<path transform="translate(1122,228)" d="m0 0c0.49 0.99 0.49 0.99 1 2-1.33 3.86-4.02 6.31-7 9-0.99 0.33-1.98 0.66-3 1v2h-2v2c-1.43 1.29-1.43 1.29-3.31 2.62-0.62 0.45-1.23 0.9-1.87 1.36-1.82 1.02-1.82 1.02-4.82 1.02v2h-4l4 3c-0.78 0.41-1.57 0.82-2.38 1.25-2.73 1.46-2.73 1.46-3.41 3.76-1.21 1.99-1.21 1.99-4 2.97-1.08 0.21-2.16 0.42-3.27 0.64-1.99 0.41-3.98 0.85-5.94 1.38l-1 2c-0.6-0.99-1.2-1.98-1.81-3-0.72-0.99-1.45-1.98-2.19-3h-3c0.02-1.86 0.02-1.86 1-4 2.6-0.97 5-1.67 7.69-2.31 15.9-4.31 29.7-11.8 39.3-25.7zm-32 26v2c2.97-0.34 2.97-0.34 6-1l1-2c-3.89-0.21-3.89-0.21-7 1z" fill="#000102"/>
<path transform="translate(1181,68)" d="m0 0c4.31 1.93 6.22 4.22 9 8v3c0.58 0.19 1.15 0.37 1.75 0.56 2.67 1.71 3.67 3.63 5.12 6.39 1.24 2.24 2.66 4.27 4.13 6.36 3.14 4.62 5.14 9.45 7 14.7h-4l-1 2c-2.31-0.99-4.62-1.98-7-3l1-2-1-1c-0.19-1.42-0.19-1.42-0.38-2.88-0.64-3.2-1.12-4.16-3.62-6.12l1-2c-0.99-0.33-1.98-0.66-3-1-0.14-0.91-0.29-1.81-0.44-2.75-0.42-2.46-0.91-4.84-1.56-7.25h-2v-2h2l1-2h-2c-1.51-1.97-1.51-1.97-3.12-4.5-0.54-0.84-1.08-1.67-1.64-2.53-0.41-0.65-0.82-1.3-1.24-1.97zm3 7 3 3h-3v-3z" fill="#0B0B0C"/>
<path transform="translate(1490,224)" d="m0 0c0.99 0.33 1.98 0.66 3 1h-2c-0.27 0.73-0.53 1.46-0.81 2.21-1.17 2.75-2.54 4.97-4.25 7.41-1.78 2.55-2.95 4.41-3.94 7.38-2.06 1.19-2.06 1.19-4 2 0.99 0.33 1.98 0.66 3 1v4h-2l1 3-1 2h-3l-2 2-2-2-1 5c-3.01 0.93-3.87 1.04-7 0-1.33-0.34-2.66-0.68-4-1l2-3-7 2c2.12-2.33 4.03-3.89 7-5 0.99 0.33 1.98 0.66 3 1l-1 1c0.99 0.33 1.98 0.66 3 1l-1-5 2-1c0.12-0.61 0.24-1.23 0.37-1.86 0.86-2.92 2.28-3.66 4.75-5.39 4.02-2.97 7.18-6.13 10.4-9.96 1.72-2.05 3.61-3.9 5.5-5.79l1-2z" fill="#040505"/>
<path transform="translate(1416 254)" d="m0 0c11.7 2.64 23.5 2.04 35.2 0.56l2 1-1 5h-9l-1 5-8-1v-1l5-1v-1c-0.58-0.05-1.16-0.1-1.75-0.15-21.2-1.86-21.2-1.86-30.2-3.85v-2l-4-2c4.75-1.08 8.04-0.74 12.8 0.44z" fill="#060607"/>
<path transform="translate(789,55)" d="m0 0c9.82 4.32 17.5 12.7 24 21v2h2l-1 2c-3.06 0.62-3.06 0.62-6 1l-1-3c-2.11-0.81-2.11-0.81-4.56-1.19-1.24-0.24-1.24-0.24-2.51-0.48-0.95-0.16-0.95-0.16-1.93-0.33 0-3 0-3 1-4l-1-3v-2h-2l-2-2c-2.11 0.32-2.11 0.32-4 1v-4h2v-2c-0.5-0.49-0.99-0.99-1.5-1.5-0.5-0.49-0.99-0.99-1.5-1.5v-2z" fill="#080809"/>
<path transform="translate(990,197)" d="m0 0h1c0.16 0.96 0.32 1.91 0.48 2.89 1.51 8.36 3.53 15.5 7.52 23.1h2c1.12 1.75 1.12 1.75 2 4-0.88 2.25-0.88 2.25-2 4-2.44-0.38-2.44-0.38-5-1l-1-2c-0.99-0.33-1.98-0.66-3-1l1-3c-0.99-0.33-1.98-0.66-3-1-2.32-3.35-2.54-7.02-3-11l-4-1c0.96-0.4 0.96-0.4 1.94-0.81 2.39-1.08 2.39-1.08 3.06-4.19 0.37-1.56 0.72-3.12 1.06-4.69 0.18-0.81 0.36-1.61 0.54-2.45 0.13-0.61 0.26-1.23 0.4-1.86zm0 5 1 2z" fill="#0F0E0E"/>
<path transform="translate(643,257)" d="m0 0c0.58 0.31 1.15 0.62 1.75 0.94 3.73 1.76 7.14 2.2 11.2 2.38 1.41 0.06 1.41 0.06 2.84 0.12 0.96 0.04 1.93 0.08 2.93 0.12 0.98 0.05 1.97 0.09 2.98 0.13 2.42 0.11 4.85 0.21 7.27 0.31v2c-13.4 0.5-13.4 0.5-27 1h3c2.67 0.29 5.33 0.65 8 1-0.99 0.33-1.98 0.66-3 1v2c-2.1 0.2-4.21 0.38-6.31 0.56-1.17 0.11-2.35 0.21-3.55 0.32-3.14 0.12-3.14 0.12-6.14-0.88-0.99 0.33-1.98 0.66-3 1-2.69-1.44-2.69-1.44-5-3 0.99-0.33 1.98-0.66 3-1v-2c0.99-0.33 1.98-0.66 3-1 0.99 1.49 0.99 1.49 2 3l3-2v-3c2.48 0.99 2.48 0.99 5 2l-2-5z" fill="#000102"/>
<path transform="translate(1345,45)" d="m0 0c-1.64 3.28-4.9 4.53-8.19 5.94-1.99 0.94-1.99 0.94-2.81 3.12-0.33 0.64-0.66 1.28-1 1.94-1.94 0.56-1.94 0.56-4 1-1.02 0.98-2.02 1.98-3 3h-2c-0.25 0.58-0.49 1.16-0.75 1.75-1.25 2.25-1.25 2.25-3.25 4.19-2.13 1.93-2.13 1.93-2.94 4.5-1.38 3.34-3.36 5.19-6.06 7.56-1.48 0.5-1.48 0.5-3 1-1.22 2.5-1.22 2.5-2 5l-2-1c1.33-3.59 2.83-6.84 5-10h2c0.24-0.57 0.48-1.14 0.73-1.72 1.52-2.73 3.34-4.55 5.58-6.72 0.81-0.79 1.62-1.58 2.46-2.39 0.74-0.72 1.47-1.43 2.23-2.17 0.83-0.87 1.65-1.73 2.5-2.62 2.97-2.83 6.15-5.27 9.41-7.73 2.08-1.57 2.08-1.57 3.68-3.3 2.6-2.49 4.07-2.46 7.41-1.35z" fill="#161615"/>
<path transform="translate(691,21)" d="m0 0c9.24 0.34 18.4 1.04 27.5 2.44 0.83 0.12 1.66 0.24 2.52 0.37 2 0.32 4 0.75 5.98 1.19 0.5 0.99 0.5 0.99 1 2-0.56-0.04-1.12-0.07-1.7-0.11-2.53-0.16-5.07-0.3-7.61-0.45-0.88-0.06-1.76-0.11-2.67-0.17-0.85-0.05-1.7-0.1-2.57-0.15-0.78-0.05-1.56-0.09-2.37-0.14-2.28-0.08-2.28-0.08-5.08 1.02-2.66 0.41-5.33 0.69-8 1v-2h-3v2l-10-1 2-1v-2h6v-2l-2-1z" fill="#0D0D0D"/>
<path transform="translate(1218,183)" d="m0 0c1.94 0.38 1.94 0.38 4 1 2.52 5.04 1.08 12.7 0 18l-2 2c-0.24 2.21-0.24 2.21-0.12 4.62 0.01 0.82 0.03 1.64 0.05 2.48 0.02 0.63 0.05 1.25 0.07 1.9l-1-3h-2c-3.17-7.93-1.95-15.7-1-24h2v-3zm3 5v6h1v-6h-1z" fill="#020204"/>
<path transform="translate(1302,84)" d="m0 0h2c-1.75 5.75-1.75 5.75-4 8 0.17 0.75 0.34 1.5 0.51 2.27 0.63 3.5-0.17 5.21-1.63 8.42-0.42 0.95-0.84 1.9-1.26 2.88-1.62 2.43-1.62 2.43-4.19 3.44-2.65 0.76-2.65 0.76-3.57 3.37-0.22 0.91-0.45 1.81-0.67 2.74-0.35 1.37-0.35 1.37-0.71 2.76-0.16 0.7-0.32 1.4-0.48 2.12h-1c-0.33-5.52 0.59-9.17 2.88-14.2 0.53-1.19 1.06-2.38 1.61-3.6 1.14-2.42 2.29-4.83 3.51-7.21h2c0.08-0.7 0.16-1.4 0.25-2.12 0.93-3.57 2.52-5.97 4.75-8.88z" fill="#0D0D0D"/>
<path transform="translate(1042 254)" d="m0 0c4.22 0.84 8.44 1.61 12.7 2.31 1.52 0.25 1.52 0.25 3.07 0.51 0.74 0.12 1.48 0.24 2.24 0.37l1 3h11v1c-12.9 0.52-28.1 0.94-40-5 1-2 1-2 2.75-2.68 2.65-0.38 4.62-0.05 7.25 0.49z" fill="#10100F"/>
<path transform="translate(1060 16.9)" d="m0 0c1.78 0.01 3.55 0.02 5.33 0.03 4.31 0.02 8.61 0.05 12.9 0.09v2h-8c-0.33 1-0.66 1.99-1 3-0.99-0.32-1.98-0.66-3-1l1-2c-9.22-0.3-17.9 0.61-27 2 0.33 0.67 0.66 1.33 1 2-3.37 0.13-3.37 0.13-7 0l-2-2h-4v-2c10.6-2.37 21-2.23 31.8-2.12z" fill="#030404"/>
<path transform="translate(933,79)" d="m0 0h2c-0.41 2.75-1.06 4.07-2.82 6.27-2.22 2.78-4.01 5.6-5.8 8.67-0.6 1-1.19 2-1.79 3.02-1.55 2.97-2.57 5.86-3.59 9.04-1.5 2.19-1.5 2.19-3 4-0.99 1.48-0.99 1.48-2 3h-2v6h-1v-7h2c0.11-0.7 0.21-1.4 0.32-2.12 0.77-3.27 2.02-5.89 3.56-8.88 0.51-1.01 1.02-2.02 1.55-3.06 4.12-7.72 4.12-7.72 6.57-8.94 0.43-1.11 0.43-1.11 0.88-2.25 1.27-3.12 2.85-5.27 5.12-7.75z" fill="#191918"/>
<path transform="translate(709,25)" d="m0 0c3.04 0.14 6.08 0.29 9.12 0.44 0.86 0.04 1.72 0.08 2.6 0.12 4.5 0.22 8.85 0.58 13.3 1.44v2h-9v2c-1.22-0.19-2.43-0.37-3.69-0.56-2.51-0.39-4.25-0.45-6.75 0.09-2.94 0.54-4.97 0.19-7.87-0.47-0.89-0.19-1.77-0.39-2.68-0.59-0.99-0.23-0.99-0.23-2.01-0.47v-1c3.47-0.5 3.47-0.5 7-1v-2z" fill="#030405"/>
<path transform="translate(561,34)" d="m0 0h1l-1 45c-2-2-2-2-2.23-5.9 0-1.68 0.01-3.36 0.03-5.05 0.01-0.88 0.01-1.77 0.01-2.68 0.01-2.83 0.04-5.66 0.07-8.49 0.01-1.92 0.01-3.84 0.02-5.76 0.02-4.71 0.06-9.41 0.1-14.1h2v-3z" fill="#191817"/>
<path transform="translate(749,225)" d="m0 0c2 3 2 3 1.94 6-0.94 3-0.94 3-3.32 4.62-0.86 0.46-1.73 0.91-2.62 1.38-0.5 0.72-0.99 1.44-1.5 2.19-0.5 0.6-0.99 1.19-1.5 1.81-2.69 0.25-2.69 0.25-5 0v2c-4.08 4.9-4.08 4.9-7.81 5.31-0.72-0.1-1.45-0.2-2.19-0.31 2.88-2.4 5.56-4.47 9-6v-2l5-2v-3h2c0.25-0.54 0.5-1.07 0.75-1.62 1.55-2.94 3.38-5.64 5.25-8.38z" fill="#171615"/>
<path transform="translate(989,129)" d="m0 0h2l-1 5h7l-1 2c-0.36 1.66-0.69 3.33-1 5l-6-3c-0.27 0.97-0.54 1.94-0.81 2.94-1.26 4.4-2.72 8.73-4.19 13.1h-1c-0.1-3.51 0.25-6.58 1-10 1.03-4.12 1.03-4.12 0-8 0.45-0.41 0.91-0.82 1.38-1.25 1.68-1.81 2.61-3.5 3.62-5.75z" fill="#010303"/>
<path transform="translate(999,30)" d="m0 0c-2.29 1.53-4.42 2.77-6.87 3.99-0.74 0.38-1.48 0.75-2.24 1.14-1.54 0.78-3.09 1.56-4.64 2.33-4.5 2.31-7.23 4.37-10.2 8.54-3.06 1.25-3.06 1.25-6 2-0.99 0.33-1.98 0.66-3 1 2.56-7.68 13.4-11.5 20-15 0.76-0.42 1.52-0.84 2.31-1.27 3.68-1.97 6.47-3.26 10.7-2.73z" fill="#1E1D1C"/>
<path transform="translate(1538,62)" d="m0 0c0.62 0.16 1.24 0.33 1.88 0.5 2.64 0.62 3.67 0.73 6.12-0.5 0.54 0.68 1.07 1.36 1.62 2.06 2.73 3.37 5.54 6.66 8.38 9.94l-1 2-5-1v-2h-2l-2-2h-2l-1-3-2-1v-2h-2l-1-3z" fill="#080809"/>
<path transform="translate(1148,41)" d="m0 0c3.64 0.63 6.01 2.19 9 4.31 0.85 0.6 1.69 1.19 2.56 1.8 2.35 1.82 4.39 3.74 6.44 5.89l-1 2c-2.31-0.33-4.62-0.66-7-1v-2c-0.93-0.43-0.93-0.43-1.88-0.88-2.12-1.12-2.12-1.12-4.12-3.12l1-3-5-4zm8 12 2 1v2l-4-1h2v-2z" fill="#131312"/>
<path transform="translate(1014,240)" d="m0 0c1.34 0.93 2.67 1.87 4 2.81 1.11 0.79 1.11 0.79 2.25 1.58 0.58 0.53 1.15 1.06 1.75 1.61v3h3v2l2 1c-0.56-0.19-1.11-0.37-1.69-0.56-2.71-0.52-4.62 0.01-7.31 0.56-0.99-0.33-1.98-0.66-3-1-0.95-2.29-0.95-2.29-1.69-5.06-0.25-0.92-0.5-1.84-0.76-2.79-0.18-0.71-0.36-1.42-0.55-2.15l2-1z" fill="#0A0A0A"/>
<path transform="translate(643,257)" d="m0 0c0.87 0.46 0.87 0.46 1.75 0.94 3.73 1.76 7.14 2.2 11.2 2.38 1.41 0.06 1.41 0.06 2.84 0.12 0.96 0.04 1.93 0.08 2.93 0.12 0.98 0.05 1.97 0.09 2.98 0.13 2.42 0.11 4.85 0.21 7.27 0.31v2c-9.24 0.33-18.5 0.66-28 1l-1-2h2l-2-5z" fill="#070808"/>
<path transform="translate(561,24)" d="m0 0h5l-2 2c-0.24 2.21-0.24 2.21-0.12 4.62 0.01 0.82 0.03 1.64 0.05 2.48 0.02 0.63 0.05 1.25 0.07 1.9h2c-0.98 2.93-2.11 4.61-4 7l-1-5h-2v-11h2v-2z" fill="#240102"/>
<path transform="translate(1122,228)" d="m0 0 1 2c-1.33 3.86-4.02 6.31-7 9-0.99 0.33-1.98 0.66-3 1v2h-2v2c-1.43 1.29-1.43 1.29-3.31 2.62-0.62 0.45-1.23 0.9-1.87 1.36-1.82 1.02-1.82 1.02-4.82 1.02v2h-3c1.18-3.53 1.85-3.77 4.94-5.62 7.36-4.72 13.7-10.4 19.1-17.4z" fill="#000002"/>
<path transform="translate(1527,47)" d="m0 0c0.99 0.33 1.98 0.66 3 1v2c2.47 0.99 2.47 0.99 5 2v2c2.47 0.99 2.47 0.99 5 2v2h2v2c0.99 0.33 1.98 0.66 3 1-3.15 1.57-5.64 0.72-9 0l-2-3c-1.82-2.35-3.57-4.6-5.75-6.62-1.25-1.38-1.25-1.38-1.25-4.38z" fill="#0D0C0D"/>
<path transform="translate(1466 20.4)" d="m0 0c0.83 0.14 1.66 0.28 2.52 0.42 3.6 0.61 7.14 1.29 10.7 2.2v2c-3.35 0.08-5.81 0.07-9-1-2.01 0.28-4.01 0.61-6 1v-2h-4-3v-2h-10v-1c6.65-1 12.2-0.81 18.8 0.38z" fill="#0E0F0E"/>
<path transform="translate(698,255)" d="m0 0 10 1-1 3h-5l1 3c-3.04 0.08-5.07-0.02-8-1-1.73-0.07-3.46-0.08-5.19-0.06-0.9 0.01-1.8 0.02-2.73 0.02-1.03 0.02-1.03 0.02-2.08 0.04 2.9-1.66 4.92-2.24 8.25-2.12 1.86 0.06 1.86 0.06 3.75 0.12l1-4z" fill="#050606"/>
<path transform="translate(1315,67)" d="m0 0 2 2c-0.11 3.17-1.25 4.28-3.38 6.69-2.62 2.31-2.62 2.31-5.62 3.31-1.22 2.5-1.22 2.5-2 5l-2-1c1.33-3.59 2.83-6.84 5-10h2c0.29-0.62 0.58-1.24 0.88-1.88 1.12-2.12 1.12-2.12 3.12-4.12z" fill="#101010"/>
<path transform="translate(660,21)" d="m0 0h27v2c-2.75 1.37-4.82 1.01-7.88 0.88-1.17-0.05-2.34-0.1-3.54-0.15-1.83-0.08-1.83-0.08-3.7-0.17-1.24-0.05-2.47-0.1-3.74-0.16-3.04-0.13-6.09-0.26-9.14-0.4l1-2z" fill="#030504"/>
<path transform="translate(644,166)" d="m0 0h1v62h-1v-62z" fill="#383632"/>
<path transform="translate(1109,24)" d="m0 0c11.2-0.61 23.7 5.9 33 12 0.49 0.99 0.49 0.99 1 2-3.74-1.08-7.07-2.51-10.5-4.31-5.3-2.72-10.8-4.66-16.4-6.58-2.5-0.89-4.77-1.85-7.1-3.11z" fill="#21201E"/>
<path transform="translate(1418,255)" d="m0 0 1 4h5v1c-5.69-0.54-11.4-1.14-17-2v-2l-4-2c5.46-1.4 9.69-0.43 15 1z" fill="#151514"/>
<path transform="translate(727,248)" d="m0 0v2c-1.87 1.02-3.74 2.01-5.62 3-1.05 0.56-2.09 1.11-3.17 1.69-3.35 1.37-5.63 1.57-9.21 1.31 3-2 3-2 5-3l1-3c4.34-2.34 7.22-3.59 12-2z" fill="#0A0B0B"/>
<path transform="translate(1511,37)" d="m0 0c6.26 1.48 10.9 5.24 16 9-0.99 1.48-0.99 1.48-2 3-2.62 0.19-2.62 0.19-5 0l2-1-2-2c-0.99 0.33-1.98 0.66-3 1l2-4-4-2v5c-0.67-1.33-1.33-2.67-2-4-0.37-0.72-0.74-1.44-1.12-2.19-0.88-1.81-0.88-1.81-0.88-2.81z" fill="#111010"/>
<path transform="translate(1502,32)" d="m0 0c7.95 3.15 7.95 3.15 10 6 0.69 2.19 0.69 2.19 1 4-0.99 0.33-1.98 0.66-3 1-1.69-0.95-3.36-1.96-5-3-2.19-0.7-2.19-0.7-4-1l2-2 1-2-2-1v-2z" fill="#09090A"/>
<path transform="translate(1490,224)" d="m0 0c0.99 0.33 1.98 0.66 3 1h-2c-0.27 0.73-0.53 1.46-0.81 2.21-1.17 2.75-2.54 4.97-4.25 7.41-1.78 2.55-2.95 4.41-3.94 7.38-1.32 0.68-2.66 1.35-4 2l-2 3-2-1c1.26-3.89 2.45-5.89 6-8h2c0.27-0.73 0.53-1.45 0.8-2.2 1.2-2.8 2.6-5.1 4.32-7.61 0.54-0.79 1.08-1.58 1.64-2.4 0.41-0.59 0.82-1.18 1.24-1.79z" fill="#232220"/>
<path transform="translate(989,160)" d="m0 0h1c-0.01 1.26-0.02 2.52-0.04 3.81-0.06 10.8 0.2 21.4 1.04 32.2-0.99 0.5-0.99 0.5-2 1-1.01-6.64-1.12-13.1-1.06-19.8 0-1.04 0.01-2.07 0.01-3.14l0.03-5.73c0.02-1.77 0.02-3.55 0.02-5.32l1-3z" fill="#383632"/>
<path transform="translate(815,80)" d="m0 0c3.68 3.38 5.98 6.43 8 11h-2l-1 2-6-3 1-10z" fill="#0F0F0F"/>
<path transform="translate(1050,256)" d="m0 0 10 1 1 3h11v1c-3.1 0.09-6.21 0.14-9.31 0.19-0.88 0.02-1.76 0.05-2.67 0.07-1.27 0.02-1.27 0.02-2.57 0.03-0.78 0.02-1.56 0.03-2.37 0.05-2.61-0.43-3.49-1.25-5.08-3.34v-2z" fill="#151414"/>
<path transform="translate(789,55)" d="m0 0c4.04 1.78 7.46 4.4 11 7l-1 2c-0.99-0.33-1.98-0.66-3-1l-2 2c-2.12 0.62-2.12 0.62-4 1v-4h2v-2c-0.5-0.49-0.99-0.99-1.5-1.5-0.5-0.49-0.99-0.99-1.5-1.5v-2z" fill="#111010"/>
<path transform="translate(921,97)" d="m0 0h1c0.78 6.15-1.01 9.24-4.49 14.3-0.5 0.57-1 1.13-1.51 1.72h-2v6h-1v-7h2c0.11-0.72 0.22-1.43 0.34-2.17 0.7-3.02 1.79-5.39 3.22-8.14 0.46-0.89 0.91-1.77 1.38-2.68 0.53-0.99 0.53-0.99 1.06-2.01z" fill="#161515"/>
<path transform="translate(759,187)" d="m0 0 2 1c0.46 7.63-1.25 14.6-3 22h-1c-0.27-7.83 0.77-15.3 2-23z" fill="#1F1E1D"/>
<path transform="translate(777 46.1)" d="m0 0c3.77 1.32 5.82 3.14 8.69 5.94v3h-2v-2l-2-1-2-2-1 1c-1.67 0.04-3.34 0.04-5 0v-2l-2-1c3-2 3-2 5.31-1.94z" fill="#0E0E0E"/>
<path transform="translate(1485,230)" d="m0 0c0 3.64-0.86 5.09-3 8-2.11 0.65-2.11 0.65-4 1 0.98-1.31 1.96-2.63 2.94-3.94 0.54-0.73 1.09-1.46 1.65-2.21 1.41-1.85 1.41-1.85 2.41-2.85zm-10 12c-0.02 0.78-0.04 1.57-0.06 2.38-0.13 2.6-0.13 2.6 1.06 4.62-2.02-0.6-4.02-1.27-6-2l-1-2c3.75-3 3.75-3 6-3z" fill="#000002"/>
<path transform="translate(1040,18)" d="m0 0 2 2c-0.99 0.5-0.99 0.5-2 1l1 2c-3.38 0.12-3.38 0.12-7 0l-2-2h-4v-2c4.05-0.77 7.87-1.28 12-1z" fill="#080909"/>
<path transform="translate(963,52)" d="m0 0c-0.52 0.45-1.04 0.89-1.57 1.36-3.96 3.42-7.79 6.88-11.4 10.6l-1-2c2.95-5.07 7.53-12.2 14-10z" fill="#1D1C1B"/>
<path transform="translate(1327,55)" d="m0 0c0.99 0.33 1.98 0.66 3 1-1.29 1.38-2.63 2.71-4 4h-2c-0.21 0.56-0.41 1.11-0.62 1.69-1.93 3.24-4.42 4.99-7.38 7.31 1.03-5.64 5.08-9.25 9.19-13 0.6-0.33 1.19-0.66 1.81-1z" fill="#232220"/>
<path transform="translate(1285,122)" d="m0 0c1.37 4.4 0.24 7.93-0.94 12.2-0.29 1.12-0.29 1.12-0.59 2.26-0.48 1.83-0.97 3.66-1.47 5.49-2-3-2-3-1.54-6.36 0.3-1.26 0.6-2.52 0.92-3.83 0.29-1.27 0.59-2.54 0.89-3.85 0.24-0.98 0.48-1.95 0.73-2.96h2v-3z" fill="#232220"/>
<path transform="translate(1171,57)" d="m0 0c1.71 1.28 3.37 2.62 5 4v2c0.96 0.43 0.96 0.43 1.94 0.88 2.06 1.12 2.06 1.12 3.06 3.12-1.11-0.5-1.11-0.5-2.25-1-2.89-1.23-2.89-1.23-6.75-1l-2-1 1-7z" fill="#151414"/>
<path transform="translate(907,130)" d="m0 0h2c-0.67 6-1.33 12-2 18-1.58-1.55-1.58-1.55-3-4 0.36-3.45 0.36-3.45 1.31-7.25 0.31-1.26 0.61-2.53 0.93-3.83 0.25-0.96 0.5-1.93 0.76-2.92z" fill="#1F1E1C"/>
<path transform="translate(1379,28)" d="m0 0c-5.24 3.35-9.88 4.95-16 6 1-3 1-3 3.36-4.2 0.98-0.35 1.95-0.69 2.95-1.05 1.45-0.53 1.45-0.53 2.93-1.08 2.78-0.68 4.11-0.65 6.76 0.33z" fill="#181817"/>
<path transform="translate(567 20.9)" d="m0 0c1.21 0 2.42 0.01 3.67 0.01 1.27 0.01 2.54 0.02 3.85 0.03 1.28 0 2.56 0 3.88 0.01 3.17 0.01 6.33 0.03 9.5 0.05v1h-26l-2 4-1-4c2.76-1.39 5.01-1.11 8.1-1.1z" fill="#030304"/>
<path transform="translate(1549,67)" d="m0 0c3.74 2.66 5.65 4.58 7 9-2.97-0.5-2.97-0.5-6-1v-2h-2l1-6z" fill="#111"/>
<path transform="translate(1138,36)" d="m0 0c2.34 0.29 4.67 0.62 7 1l1 3h-2l-1 2c-2.31-0.33-4.62-0.66-7-1 0.88-3.88 0.88-3.88 2-5z" fill="#010203"/>
<path transform="translate(1396,23)" d="m0 0 1 2c-4.67 1.21-9.21 1.09-14 1v-2c1.41-0.37 2.83-0.72 4.25-1.06 0.79-0.2 1.58-0.4 2.39-0.6 2.5-0.36 4.02-0.25 6.36 0.66z" fill="#0C0D0C"/>
<path transform="translate(1219,184)" d="m0 0h3c2.58 5.17 0.94 12.5 0 18h-1v-10l-2-1v-7z" fill="#181817"/>
<path transform="translate(1160,49)" d="m0 0c2.44 0.81 2.44 0.81 5 2l1 3c-3.29 0.8-4.71 1.1-8 0v-2h3l-1-3zm-4 4 2 1v2l-4-1h2v-2z" fill="#0B0B0B"/>
<path transform="translate(1134,203)" d="m0 0c1.33 3.71 0.69 6.42-0.25 10.2-0.25 1.06-0.51 2.13-0.77 3.23-0.32 0.85-0.65 1.7-0.98 2.58-0.99 0.33-1.98 0.66-3 1 0.93-6.16 1.79-11.6 5-17z" fill="#21201F"/>
<path transform="translate(921,104)" d="m0 0 2 3c-1.39 3.36-2.92 5.07-6 7h-2l-1 2v-3l3-3c0.67-1.66 1.34-3.33 2-5l2-1z" fill="#050506"/>
<path transform="translate(1377,231)" d="m0 0c1.81 0.19 1.81 0.19 4 1 2.52 3.4 3.78 6.97 5 11-2.04-1.62-4.04-3.29-6-5v-2h-2l-1-5z" fill="#232220"/>
<path transform="translate(1075,256)" d="m0 0 8 1v2c-4.43 2.09-4.43 2.09-7.31 1.62-0.56-0.2-1.12-0.41-1.69-0.62l1-4z" fill="#070808"/>
<path transform="translate(1291,104)" d="m0 0h2c-0.87 5.76-3.33 10.9-6 16-0.53-6.26 1.18-10.4 4-16z" fill="#22211F"/>
<path transform="translate(976,42)" d="m0 0 2 1c-2.54 3.11-5.21 3.89-9 5-0.99 0.33-1.98 0.66-3 1 1.05-2.87 1.64-3.82 4.44-5.19 0.84-0.27 1.69-0.53 2.56-0.81 0.99-0.33 1.98-0.66 3-1z" fill="#141313"/>
<path transform="translate(1113,240)" d="m0 0 2 1c-2.32 5.61-2.32 5.61-5.5 7.44-2.5 0.56-2.5 0.56-5.5-0.44 4.75-4 4.75-4 7-4v-2h2v-2z" fill="#1F1E1C"/>
<path transform="translate(1014,240)" d="m0 0 5 5-2 2c-1.94-0.75-1.94-0.75-4-2-0.75-2.12-0.75-2.12-1-4l2-1z" fill="#201F1D"/>
<path transform="translate(933,79)" d="m0 0h2c-0.7 4.75-3.71 7.71-7 11-0.39-2.63-0.38-4.38 1.04-6.67 1.34-1.64 1.34-1.64 3.96-4.33z" fill="#201F1D"/>
<path transform="translate(1527,47)" d="m0 0c0.99 0.33 1.98 0.66 3 1v2c2.47 0.99 2.47 0.99 5 2v2c-0.99 0.33-1.98 0.66-3 1l-2-2c-0.54-0.47-1.07-0.95-1.62-1.44-1.38-1.56-1.38-1.56-1.38-4.56z" fill="#151514"/>
<path transform="translate(1068,17)" d="m0 0h10v2h-8l-1 3c-0.99-0.33-1.98-0.66-3-1l2-4z" fill="#020303"/>
<path transform="translate(1223,171)" d="m0 0h1v10h-1v-10z" fill="#383632"/>
<path transform="translate(558,92)" d="m0 0h1v10h-1v-10z" fill="#383632"/>
<path transform="translate(1221,158)" d="m0 0h2v6h-1l-1-6z" fill="#383632"/>
<path transform="translate(993,141)" d="m0 0 1 3-2 3 1-6z" fill="#302E2B"/>
<path transform="translate(645,97)" d="m0 0h1v6h-1v-6z" fill="#383632"/>
<path transform="translate(558,77)" d="m0 0h1v6h-1v-6z" fill="#1C1B1A"/>
<path transform="translate(990,152)" d="m0 0h1v5h-1v-5z" fill="#383632"/>
<path transform="translate(558,292)" d="m0 0 1 4z" fill="#383632"/>
<path transform="translate(844,204)" d="m0 0 1 4z" fill="#383632"/>
<path transform="translate(841,133)" d="m0 0 1 4z" fill="#383632"/>
</svg>
