<?xml version="1.0" encoding="iso-8859-1"?>
<!-- Generator: Adobe Illustrator 16.0.0, SVG Export Plug-In . SVG Version: 6.00 Build 0)  -->
<!DOCTYPE svg PUBLIC "-//W3C//DTD SVG 1.1//EN" "http://www.w3.org/Graphics/SVG/1.1/DTD/svg11.dtd">
<svg xmlns="http://www.w3.org/2000/svg" xmlns:xlink="http://www.w3.org/1999/xlink" version="1.1" id="Capa_1" x="0px" y="0px" width="512px" height="512px" viewBox="0 0 943.9 943.899" style="enable-background:new 0 0 943.9 943.899;" xml:space="preserve">
<g>
	<g>
		<path d="M335.212,913.899V874.5h51.5c16.601,0,30-13.4,30-30v-40c0-16.601-13.399-30-30-30h-51.5v-63.101    c36.4-6.6,70.9-20.399,101.7-40.8c-36.3-14.2-69.7-35.3-98.7-62.899c-17.399,5.5-36,8.399-55.3,8.1    c-95.2-1.2-172.8-78.7-174.1-173.9c-1.3-93,69.9-170,160.6-178.1c15-33.8,36.3-64.9,63.2-91.9c1.399-1.4,2.8-2.7,4.1-4    c-16.8-3.2-34.1-4.8-51.6-4.8c-73.8,0-143.2,28.7-195.4,80.9c-51.2,51.4-79.8,119.3-80.8,191.6c-1,74,27.8,145.601,79.8,198.2    c40.4,40.8,91.2,67.5,146.5,77.6V774.5h-51.5c-16.6,0-30,13.399-30,30v40c0,16.6,13.4,30,30,30h51.5v39.399    c0,16.601,13.4,30,30,30h40C321.813,943.899,335.212,930.5,335.212,913.899z" fill="#d1d7d7"/>
		<path d="M452.813,292.3c-11.801,11.8-21.101,25.4-27.7,40.1c22.8,29.7,36.399,66.9,36.399,107.2c0,15.601-2.1,30.8-5.899,45.2    c25,23.6,57.5,36.6,92.1,36.6c0.5,0,1.101,0,1.601,0c8.1-26.1,12.3-53.6,12.3-81.8c0-65.4-22.601-127.4-64.101-176.9    C481.012,269.3,465.813,279.3,452.813,292.3z" fill="#d1d7d7"/>
		<path d="M729.313,100h34.899l-64.7,64.7c-44.399-30.4-96.8-46.8-151.699-46.8c-62.9,0-122.601,21.4-170.601,60.9    c-6.8,5.6-13.5,11.6-19.8,18c-20.2,20.2-36.8,43.1-49.5,67.9c-19.2,37.5-29.4,79.2-29.4,122.5c0,71.899,28,139.5,78.9,190.399    c5.2,5.2,10.5,10.101,16,14.7c28.5,24.3,61.4,42.2,96.7,52.8c24.899,7.5,51,11.3,77.7,11.3c71.899,0,139.5-28,190.399-78.899    c50.8-50.8,78.9-118.5,78.9-190.4c0-54.9-16.4-107.4-46.8-151.7l64.699-64.7v34.9c0,16.6,13.4,30,30,30h40c16.601,0,30-13.4,30-30    V50v-0.1c0-13-5.3-25.9-14.5-35.2c-9.199-9.2-22.1-14.7-35.1-14.7c-0.1,0-0.2,0-0.3,0h-155.8c-16.601,0-30,13.4-30,30v40    C699.313,86.6,712.712,100,729.313,100z M667.413,506.8c-32,32-74.5,49.6-119.7,49.6c-3.899,0-7.8-0.1-11.7-0.399    c-34.399-2.3-66.8-15-93.6-36.4c-5-4-9.7-8.2-14.3-12.8c-54.5-54.5-64-137.1-28.5-201.4c7.5-13.6,17-26.4,28.5-37.9    c13-13,27.8-23.7,43.8-31.7c23.2-11.7,49.1-17.9,75.8-17.9c45.2,0,87.7,17.6,119.7,49.6    C733.413,333.5,733.413,440.899,667.413,506.8z" fill="#d1d7d7"/>
	</g>
</g>
<g>
</g>
<g>
</g>
<g>
</g>
<g>
</g>
<g>
</g>
<g>
</g>
<g>
</g>
<g>
</g>
<g>
</g>
<g>
</g>
<g>
</g>
<g>
</g>
<g>
</g>
<g>
</g>
<g>
</g>
</svg>
